<?xml version="1.0" encoding="UTF-8" standalone="no"?>
<!DOCTYPE svg PUBLIC "-//W3C//DTD SVG 1.1//EN"
 "http://www.w3.org/Graphics/SVG/1.1/DTD/svg11.dtd">
<!-- Generated by graphviz version 13.1.2 (20250808.2320)
 -->
<!-- Title: ADC_Data_Flow Pages: 1 -->
<svg width="749pt" height="122pt"
 viewBox="0.00 0.00 749.00 122.00" xmlns="http://www.w3.org/2000/svg" xmlns:xlink="http://www.w3.org/1999/xlink">
<g id="graph0" class="graph" transform="scale(1 1) rotate(0) translate(4 117.75)">
<title>ADC_Data_Flow</title>
<polygon fill="white" stroke="none" points="-4,4 -4,-117.75 744.75,-117.75 744.75,4 -4,4"/>
<text xml:space="preserve" text-anchor="middle" x="370.38" y="-96.45" font-family="Arial Bold" font-size="14.00">ESP32 ADC Data Flow Architecture</text>
<!-- sensor -->
<g id="node1" class="node">
<title>sensor</title>
<polygon fill="#e8f4fd" stroke="black" points="100,-36 0,-36 0,0 100,0 100,-36"/>
<text xml:space="preserve" text-anchor="middle" x="50" y="-20.5" font-family="Arial" font-size="10.00">Sensor</text>
<text xml:space="preserve" text-anchor="middle" x="50" y="-8.5" font-family="Arial" font-size="10.00">(Temperature/Light)</text>
</g>
<!-- gpio_pin -->
<g id="node2" class="node">
<title>gpio_pin</title>
<polygon fill="#fff2cc" stroke="black" points="223.25,-36 165.25,-36 165.25,0 223.25,0 223.25,-36"/>
<text xml:space="preserve" text-anchor="middle" x="194.25" y="-20.5" font-family="Arial" font-size="10.00">GPIO Pin</text>
<text xml:space="preserve" text-anchor="middle" x="194.25" y="-8.5" font-family="Arial" font-size="10.00">(34&#45;39)</text>
</g>
<!-- sensor&#45;&gt;gpio_pin -->
<g id="edge1" class="edge">
<title>sensor&#45;&gt;gpio_pin</title>
<path fill="none" stroke="black" d="M100.35,-18C117.79,-18 137.15,-18 153.67,-18"/>
<polygon fill="black" stroke="black" points="153.62,-21.5 163.62,-18 153.62,-14.5 153.62,-21.5"/>
<text xml:space="preserve" text-anchor="middle" x="132.62" y="-30.45" font-family="Arial" font-size="9.00">Analog</text>
<text xml:space="preserve" text-anchor="middle" x="132.62" y="-19.95" font-family="Arial" font-size="9.00">Signal</text>
</g>
<!-- io_mux -->
<g id="node3" class="node">
<title>io_mux</title>
<polygon fill="#d5e8d4" stroke="black" points="345.5,-36 291.5,-36 291.5,0 345.5,0 345.5,-36"/>
<text xml:space="preserve" text-anchor="middle" x="318.5" y="-20.5" font-family="Arial" font-size="10.00">IO MUX</text>
<text xml:space="preserve" text-anchor="middle" x="318.5" y="-8.5" font-family="Arial" font-size="10.00">Config</text>
</g>
<!-- gpio_pin&#45;&gt;io_mux -->
<g id="edge2" class="edge">
<title>gpio_pin&#45;&gt;io_mux</title>
<path fill="none" stroke="black" d="M223.6,-18C240.38,-18 261.84,-18 280.01,-18"/>
<polygon fill="black" stroke="black" points="279.87,-21.5 289.87,-18 279.87,-14.5 279.87,-21.5"/>
<text xml:space="preserve" text-anchor="middle" x="257.38" y="-30.45" font-family="Arial" font-size="9.00">Pin</text>
<text xml:space="preserve" text-anchor="middle" x="257.38" y="-19.95" font-family="Arial" font-size="9.00">Routing</text>
</g>
<!-- adc_unit -->
<g id="node4" class="node">
<title>adc_unit</title>
<polygon fill="#f8cecc" stroke="black" points="469.5,-36 410.75,-36 410.75,0 469.5,0 469.5,-36"/>
<text xml:space="preserve" text-anchor="middle" x="440.12" y="-20.5" font-family="Arial" font-size="10.00">ADC Unit</text>
<text xml:space="preserve" text-anchor="middle" x="440.12" y="-8.5" font-family="Arial" font-size="10.00">12&#45;bit</text>
</g>
<!-- io_mux&#45;&gt;adc_unit -->
<g id="edge3" class="edge">
<title>io_mux&#45;&gt;adc_unit</title>
<path fill="none" stroke="black" d="M345.75,-18C361.36,-18 381.48,-18 399.04,-18"/>
<polygon fill="black" stroke="black" points="398.91,-21.5 408.91,-18 398.91,-14.5 398.91,-21.5"/>
<text xml:space="preserve" text-anchor="middle" x="378.12" y="-30.45" font-family="Arial" font-size="9.00">Analog</text>
<text xml:space="preserve" text-anchor="middle" x="378.12" y="-19.95" font-family="Arial" font-size="9.00">Input</text>
</g>
<!-- digital_filter -->
<g id="node5" class="node">
<title>digital_filter</title>
<polygon fill="#e1d5e7" stroke="black" points="597.25,-36 528.75,-36 528.75,0 597.25,0 597.25,-36"/>
<text xml:space="preserve" text-anchor="middle" x="563" y="-20.5" font-family="Arial" font-size="10.00">Digital Filter</text>
<text xml:space="preserve" text-anchor="middle" x="563" y="-8.5" font-family="Arial" font-size="10.00">Calibration</text>
</g>
<!-- adc_unit&#45;&gt;digital_filter -->
<g id="edge4" class="edge">
<title>adc_unit&#45;&gt;digital_filter</title>
<path fill="none" stroke="black" d="M469.77,-18C483.93,-18 501.34,-18 517.2,-18"/>
<polygon fill="black" stroke="black" points="516.9,-21.5 526.9,-18 516.9,-14.5 516.9,-21.5"/>
<text xml:space="preserve" text-anchor="middle" x="499.12" y="-30.45" font-family="Arial" font-size="9.00">Raw</text>
<text xml:space="preserve" text-anchor="middle" x="499.12" y="-19.95" font-family="Arial" font-size="9.00">12&#45;bit</text>
</g>
<!-- cpu_dma -->
<g id="node6" class="node">
<title>cpu_dma</title>
<polygon fill="#dae8fc" stroke="black" points="740.75,-36 676,-36 676,0 740.75,0 740.75,-36"/>
<text xml:space="preserve" text-anchor="middle" x="708.38" y="-20.5" font-family="Arial" font-size="10.00">DMA/CPU</text>
<text xml:space="preserve" text-anchor="middle" x="708.38" y="-8.5" font-family="Arial" font-size="10.00">Processing</text>
</g>
<!-- digital_filter&#45;&gt;cpu_dma -->
<g id="edge5" class="edge">
<title>digital_filter&#45;&gt;cpu_dma</title>
<path fill="none" stroke="black" d="M597.62,-18C617.59,-18 643.12,-18 664.53,-18"/>
<polygon fill="black" stroke="black" points="664.42,-21.5 674.42,-18 664.42,-14.5 664.42,-21.5"/>
<text xml:space="preserve" text-anchor="middle" x="636.62" y="-30.45" font-family="Arial" font-size="9.00">Calibrated</text>
<text xml:space="preserve" text-anchor="middle" x="636.62" y="-19.95" font-family="Arial" font-size="9.00">Voltage</text>
</g>
<!-- step1 -->
<g id="node7" class="node">
<title>step1</title>
<ellipse fill="#ffe6cc" stroke="black" cx="50" cy="-72" rx="18" ry="18"/>
<text xml:space="preserve" text-anchor="middle" x="50" y="-68.5" font-family="Arial" font-size="10.00">1</text>
</g>
<!-- step2 -->
<g id="node8" class="node">
<title>step2</title>
<ellipse fill="#ffe6cc" stroke="black" cx="194.25" cy="-72" rx="18" ry="18"/>
<text xml:space="preserve" text-anchor="middle" x="194.25" y="-68.5" font-family="Arial" font-size="10.00">2</text>
</g>
<!-- step3 -->
<g id="node9" class="node">
<title>step3</title>
<ellipse fill="#ffe6cc" stroke="black" cx="318.5" cy="-72" rx="18" ry="18"/>
<text xml:space="preserve" text-anchor="middle" x="318.5" y="-68.5" font-family="Arial" font-size="10.00">3</text>
</g>
<!-- step4 -->
<g id="node10" class="node">
<title>step4</title>
<ellipse fill="#ffe6cc" stroke="black" cx="440.12" cy="-72" rx="18" ry="18"/>
<text xml:space="preserve" text-anchor="middle" x="440.12" y="-68.5" font-family="Arial" font-size="10.00">4</text>
</g>
<!-- step5 -->
<g id="node11" class="node">
<title>step5</title>
<ellipse fill="#ffe6cc" stroke="black" cx="563" cy="-72" rx="18" ry="18"/>
<text xml:space="preserve" text-anchor="middle" x="563" y="-68.5" font-family="Arial" font-size="10.00">5</text>
</g>
<!-- step6 -->
<g id="node12" class="node">
<title>step6</title>
<ellipse fill="#ffe6cc" stroke="black" cx="708.38" cy="-72" rx="18" ry="18"/>
<text xml:space="preserve" text-anchor="middle" x="708.38" y="-68.5" font-family="Arial" font-size="10.00">6</text>
</g>
</g>
</svg>
