<?xml version="1.0" encoding="UTF-8" standalone="no"?>
<!DOCTYPE svg PUBLIC "-//W3C//DTD SVG 1.1//EN"
 "http://www.w3.org/Graphics/SVG/1.1/DTD/svg11.dtd">
<!-- Generated by graphviz version 13.1.2 (20250808.2320)
 -->
<!-- Title: ESP32_GPIO_Constraints Pages: 1 -->
<svg width="1026pt" height="286pt"
 viewBox="0.00 0.00 1026.00 286.00" xmlns="http://www.w3.org/2000/svg" xmlns:xlink="http://www.w3.org/1999/xlink">
<g id="graph0" class="graph" transform="scale(1 1) rotate(0) translate(4 281.5)">
<title>ESP32_GPIO_Constraints</title>
<polygon fill="white" stroke="none" points="-4,4 -4,-281.5 1021.75,-281.5 1021.75,4 -4,4"/>
<text xml:space="preserve" text-anchor="middle" x="508.88" y="-260.2" font-family="Arial Bold" font-size="14.00">ESP32 GPIO Pin Constraints &amp; Recommendations</text>
<!-- safe_pins -->
<g id="node1" class="node">
<title>safe_pins</title>
<polygon fill="#c8e6c9" stroke="none" points="8,-232.12 8,-248.62 156.5,-248.62 156.5,-232.12 8,-232.12"/>
<polygon fill="none" stroke="black" points="8,-232.12 8,-248.62 156.5,-248.62 156.5,-232.12 8,-232.12"/>
<text xml:space="preserve" text-anchor="start" x="26.38" y="-238.07" font-family="Arial" font-weight="bold" font-size="9.00">GPIO: 1, 3, 4, 16, 17, 18, 19</text>
<polygon fill="#c8e6c9" stroke="none" points="8,-215.62 8,-232.12 156.5,-232.12 156.5,-215.62 8,-215.62"/>
<polygon fill="none" stroke="black" points="8,-215.62 8,-232.12 156.5,-232.12 156.5,-215.62 8,-215.62"/>
<text xml:space="preserve" text-anchor="start" x="11" y="-221.57" font-family="Arial" font-weight="bold" font-size="9.00">GPIO: 21, 22, 23, 25, 26, 27, 32, 33</text>
<polygon fill="none" stroke="black" points="8,-199.12 8,-215.62 156.5,-215.62 156.5,-199.12 8,-199.12"/>
<text xml:space="preserve" text-anchor="start" x="59.75" y="-204.07" font-family="Arial" font-size="9.00">• Digital I/O</text>
<polygon fill="none" stroke="black" points="8,-182.62 8,-199.12 156.5,-199.12 156.5,-182.62 8,-182.62"/>
<text xml:space="preserve" text-anchor="start" x="54.12" y="-187.57" font-family="Arial" font-size="9.00">• PWM Output</text>
<polygon fill="none" stroke="black" points="8,-166.12 8,-182.62 156.5,-182.62 156.5,-166.12 8,-166.12"/>
<text xml:space="preserve" text-anchor="start" x="14.75" y="-171.07" font-family="Arial" font-size="9.00">• Communication (UART/SPI/I2C)</text>
<polygon fill="none" stroke="black" points="8,-149.62 8,-166.12 156.5,-166.12 156.5,-149.62 8,-149.62"/>
<text xml:space="preserve" text-anchor="start" x="38" y="-154.57" font-family="Arial" font-size="9.00">• No Boot Restrictions</text>
</g>
<!-- examples -->
<g id="node5" class="node">
<title>examples</title>
<polygon fill="#f5f5f5" stroke="none" points="319.25,-4 319.25,-104.5 607.25,-104.5 607.25,-4 319.25,-4"/>
<polygon fill="none" stroke="black" points="319.25,-87.25 319.25,-104.5 607.25,-104.5 607.25,-87.25 319.25,-87.25"/>
<text xml:space="preserve" text-anchor="start" x="322.25" y="-93.95" font-family="Arial" font-weight="bold" font-size="9.00">💡 ตัวอย่างการใช้งาน</text>
<polygon fill="none" stroke="black" points="319.25,-70.75 319.25,-87.25 429.5,-87.25 429.5,-70.75 319.25,-70.75"/>
<text xml:space="preserve" text-anchor="start" x="348.5" y="-76.7" font-family="Arial" font-weight="bold" font-size="9.00">LED Control</text>
<polygon fill="none" stroke="black" points="429.5,-70.75 429.5,-87.25 607.25,-87.25 607.25,-70.75 429.5,-70.75"/>
<text xml:space="preserve" text-anchor="start" x="475.25" y="-75.7" font-family="Arial" font-size="9.00">GPIO 2, 16, 17 (Safe)</text>
<polygon fill="none" stroke="black" points="319.25,-53.5 319.25,-70.75 429.5,-70.75 429.5,-53.5 319.25,-53.5"/>
<text xml:space="preserve" text-anchor="start" x="348.5" y="-59.83" font-family="Arial" font-weight="bold" font-size="9.00">Button Input</text>
<polygon fill="none" stroke="black" points="429.5,-53.5 429.5,-70.75 607.25,-70.75 607.25,-53.5 429.5,-53.5"/>
<text xml:space="preserve" text-anchor="start" x="437" y="-59.2" font-family="Arial" font-size="9.00">GPIO 0 (ต้องมี pull&#45;up)</text>
<polygon fill="none" stroke="black" points="319.25,-37 319.25,-53.5 429.5,-53.5 429.5,-37 319.25,-37"/>
<text xml:space="preserve" text-anchor="start" x="347.75" y="-42.95" font-family="Arial" font-weight="bold" font-size="9.00">Sensor ADC</text>
<polygon fill="none" stroke="black" points="429.5,-37 429.5,-53.5 607.25,-53.5 607.25,-37 429.5,-37"/>
<text xml:space="preserve" text-anchor="start" x="470" y="-41.95" font-family="Arial" font-size="9.00">GPIO 34&#45;39 (Input&#45;only)</text>
<polygon fill="none" stroke="black" points="319.25,-20.5 319.25,-37 429.5,-37 429.5,-20.5 319.25,-20.5"/>
<text xml:space="preserve" text-anchor="start" x="326.75" y="-26.45" font-family="Arial" font-weight="bold" font-size="9.00">UART Communication</text>
<polygon fill="none" stroke="black" points="429.5,-20.5 429.5,-37 607.25,-37 607.25,-20.5 429.5,-20.5"/>
<text xml:space="preserve" text-anchor="start" x="480.12" y="-25.45" font-family="Arial" font-size="9.00">GPIO 16, 17 (Safe)</text>
<polygon fill="none" stroke="black" points="319.25,-4 319.25,-20.5 429.5,-20.5 429.5,-4 319.25,-4"/>
<text xml:space="preserve" text-anchor="start" x="350" y="-9.95" font-family="Arial" font-weight="bold" font-size="9.00">PWM Motor</text>
<polygon fill="none" stroke="black" points="429.5,-4 429.5,-20.5 607.25,-20.5 607.25,-4 429.5,-4"/>
<text xml:space="preserve" text-anchor="start" x="480.12" y="-8.95" font-family="Arial" font-size="9.00">GPIO 18, 19 (Safe)</text>
</g>
<!-- safe_pins&#45;&gt;examples -->
<!-- strapping_pins -->
<g id="node2" class="node">
<title>strapping_pins</title>
<polygon fill="#ffe082" stroke="none" points="190.38,-233.25 190.38,-249.75 452.12,-249.75 452.12,-233.25 190.38,-233.25"/>
<polygon fill="none" stroke="black" points="190.38,-233.25 190.38,-249.75 452.12,-249.75 452.12,-233.25 190.38,-233.25"/>
<text xml:space="preserve" text-anchor="start" x="258.62" y="-239.2" font-family="Arial" font-weight="bold" font-size="9.00">Strapping: GPIO 0, 2, 5, 12, 15</text>
<polygon fill="none" stroke="black" points="190.38,-216 190.38,-233.25 452.12,-233.25 452.12,-216 190.38,-216"/>
<text xml:space="preserve" text-anchor="start" x="235.75" y="-221.7" font-family="Arial" font-size="9.00">⚠️ มีผลต่อ Boot Mode</text>
<polygon fill="none" stroke="black" points="190.38,-198.75 190.38,-216 452.12,-216 452.12,-198.75 190.38,-198.75"/>
<text xml:space="preserve" text-anchor="start" x="211.38" y="-204.45" font-family="Arial" font-size="9.00">⚠️ ระวัง Pull&#45;up/down ตอน Boot</text>
<polygon fill="none" stroke="black" points="190.38,-181.5 190.38,-198.75 452.12,-198.75 452.12,-181.5 190.38,-181.5"/>
<text xml:space="preserve" text-anchor="start" x="193.38" y="-187.2" font-family="Arial" font-size="9.00">✅ ใช้ได้ปกติหลัง Boot</text>
<polygon fill="none" stroke="black" points="190.38,-165 190.38,-181.5 452.12,-181.5 452.12,-165 190.38,-165"/>
<text xml:space="preserve" text-anchor="start" x="254.12" y="-169.95" font-family="Arial" font-size="9.00">📌 GPIO0: Boot/Download Mode</text>
<polygon fill="none" stroke="black" points="190.38,-148.5 190.38,-165 452.12,-165 452.12,-148.5 190.38,-148.5"/>
<text xml:space="preserve" text-anchor="start" x="254.12" y="-153.45" font-family="Arial" font-size="9.00">📌 GPIO12: Flash Voltage Select</text>
</g>
<!-- strapping_pins&#45;&gt;examples -->
<!-- input_pins -->
<g id="node3" class="node">
<title>input_pins</title>
<polygon fill="#b3e5fc" stroke="none" points="485.88,-225 485.88,-241.5 726.62,-241.5 726.62,-225 485.88,-225"/>
<polygon fill="none" stroke="black" points="485.88,-225 485.88,-241.5 726.62,-241.5 726.62,-225 485.88,-225"/>
<text xml:space="preserve" text-anchor="start" x="550" y="-230.95" font-family="Arial" font-weight="bold" font-size="9.00">GPIO: 34, 35, 36, 37, 38, 39</text>
<polygon fill="none" stroke="black" points="485.88,-207.75 485.88,-225 726.62,-225 726.62,-207.75 485.88,-207.75"/>
<text xml:space="preserve" text-anchor="start" x="526.75" y="-213.45" font-family="Arial" font-size="9.00">✅ ADC Input (แนะนำ)</text>
<polygon fill="none" stroke="black" points="485.88,-191.25 485.88,-207.75 726.62,-207.75 726.62,-191.25 485.88,-191.25"/>
<text xml:space="preserve" text-anchor="start" x="574.75" y="-196.2" font-family="Arial" font-size="9.00">✅ Digital Input</text>
<polygon fill="none" stroke="black" points="485.88,-174 485.88,-191.25 726.62,-191.25 726.62,-174 485.88,-174"/>
<text xml:space="preserve" text-anchor="start" x="488.88" y="-179.7" font-family="Arial" font-size="9.00">❌ ไม่สามารถ Output ได้</text>
<polygon fill="none" stroke="black" points="485.88,-156.75 485.88,-174 726.62,-174 726.62,-156.75 485.88,-156.75"/>
<text xml:space="preserve" text-anchor="start" x="518.12" y="-162.45" font-family="Arial" font-size="9.00">💡 เหมาะกับ Sensors</text>
</g>
<!-- input_pins&#45;&gt;examples -->
<!-- flash_pins -->
<g id="node4" class="node">
<title>flash_pins</title>
<polygon fill="#ffcdd2" stroke="none" points="760.75,-225.38 760.75,-241.88 1009.75,-241.88 1009.75,-225.38 760.75,-225.38"/>
<polygon fill="none" stroke="black" points="760.75,-225.38 760.75,-241.88 1009.75,-241.88 1009.75,-225.38 760.75,-225.38"/>
<text xml:space="preserve" text-anchor="start" x="827.12" y="-231.32" font-family="Arial" font-weight="bold" font-size="9.00">Flash: GPIO 6, 7, 8, 9, 10, 11</text>
<polygon fill="none" stroke="black" points="760.75,-208.12 760.75,-225.38 1009.75,-225.38 1009.75,-208.12 760.75,-208.12"/>
<text xml:space="preserve" text-anchor="start" x="781" y="-213.82" font-family="Arial" font-size="9.00">🔗 เชื่อมต่อ SPI Flash IC</text>
<polygon fill="none" stroke="black" points="760.75,-190.88 760.75,-208.12 1009.75,-208.12 1009.75,-190.88 760.75,-190.88"/>
<text xml:space="preserve" text-anchor="start" x="775.75" y="-196.57" font-family="Arial" font-size="9.00">⚡ มี SPI Signal วิ่งอยู่</text>
<polygon fill="none" stroke="black" points="760.75,-173.62 760.75,-190.88 1009.75,-190.88 1009.75,-173.62 760.75,-173.62"/>
<text xml:space="preserve" text-anchor="start" x="763.75" y="-179.32" font-family="Arial" font-size="9.00">💥 จะทำให้ ESP32 พัง/Brick</text>
<polygon fill="none" stroke="black" points="760.75,-156.38 760.75,-173.62 1009.75,-173.62 1009.75,-156.38 760.75,-156.38"/>
<text xml:space="preserve" text-anchor="start" x="766.75" y="-162.07" font-family="Arial" font-size="9.00">🚫 อย่าแตะเด็ดขาด!</text>
</g>
<!-- flash_pins&#45;&gt;examples -->
</g>
</svg>
