<?xml version="1.0" encoding="UTF-8" standalone="no"?>
<!DOCTYPE svg PUBLIC "-//W3C//DTD SVG 1.1//EN"
 "http://www.w3.org/Graphics/SVG/1.1/DTD/svg11.dtd">
<!-- Generated by graphviz version 13.1.2 (20250808.2320)
 -->
<!-- Title: ESP32_Architecture Pages: 1 -->
<svg width="716pt" height="575pt"
 viewBox="0.00 0.00 716.00 575.00" xmlns="http://www.w3.org/2000/svg" xmlns:xlink="http://www.w3.org/1999/xlink">
<g id="graph0" class="graph" transform="scale(1 1) rotate(0) translate(4 571)">
<title>ESP32_Architecture</title>
<polygon fill="white" stroke="none" points="-4,4 -4,-571 712,-571 712,4 -4,4"/>
<g id="clust1" class="cluster">
<title>cluster_cpu</title>
<polygon fill="lightblue" stroke="black" points="293,-463.25 293,-559 515,-559 515,-463.25 293,-463.25"/>
<text xml:space="preserve" text-anchor="middle" x="404" y="-541.7" font-family="Arial Bold" font-size="14.00">Dual&#45;Core Processors</text>
</g>
<g id="clust2" class="cluster">
<title>cluster_peripherals</title>
<polygon fill="lightyellow" stroke="black" points="8,-8 8,-90.25 700,-90.25 700,-8 8,-8"/>
<text xml:space="preserve" text-anchor="middle" x="354" y="-74.85" font-family="Arial" font-size="12.00">Peripheral Function Blocks</text>
</g>
<!-- pro_cpu -->
<g id="node1" class="node">
<title>pro_cpu</title>
<polygon fill="lightgreen" stroke="black" points="395,-527.25 305,-527.25 301,-523.25 301,-471.25 391,-471.25 395,-475.25 395,-527.25"/>
<polyline fill="none" stroke="black" points="391,-523.25 301,-523.25"/>
<polyline fill="none" stroke="black" points="391,-523.25 391,-471.25"/>
<polyline fill="none" stroke="black" points="391,-523.25 395,-527.25"/>
<text xml:space="preserve" text-anchor="middle" x="348" y="-513.75" font-family="Arial" font-size="10.00">PRO CPU</text>
<text xml:space="preserve" text-anchor="middle" x="348" y="-501.75" font-family="Arial" font-size="10.00">(Protocol)</text>
<text xml:space="preserve" text-anchor="middle" x="348" y="-489.75" font-family="Arial" font-size="10.00">Xtensa LX6 32&#45;bit</text>
<text xml:space="preserve" text-anchor="middle" x="348" y="-477.75" font-family="Arial" font-size="10.00">240 MHz</text>
</g>
<!-- bus_matrix -->
<g id="node3" class="node">
<title>bus_matrix</title>
<polygon fill="orange" stroke="black" points="512,-424.75 296,-424.75 296,-388.75 512,-388.75 512,-424.75"/>
<text xml:space="preserve" text-anchor="middle" x="404" y="-409.25" font-family="Arial" font-size="10.00">Interconnect Bus Matrix</text>
<text xml:space="preserve" text-anchor="middle" x="404" y="-397.25" font-family="Arial" font-size="10.00">Arbitrator</text>
</g>
<!-- pro_cpu&#45;&gt;bus_matrix -->
<g id="edge1" class="edge">
<title>pro_cpu&#45;&gt;bus_matrix</title>
<path fill="none" stroke="black" d="M364.8,-471.1C371.93,-459.58 380.21,-446.19 387.33,-434.7"/>
<polygon fill="black" stroke="black" points="390.13,-436.81 392.42,-426.46 384.18,-433.13 390.13,-436.81"/>
<text xml:space="preserve" text-anchor="middle" x="399.39" y="-444.7" font-family="Arial" font-size="9.00">AHB Bus</text>
</g>
<!-- app_cpu -->
<g id="node2" class="node">
<title>app_cpu</title>
<polygon fill="lightgreen" stroke="black" points="507,-527.25 417,-527.25 413,-523.25 413,-471.25 503,-471.25 507,-475.25 507,-527.25"/>
<polyline fill="none" stroke="black" points="503,-523.25 413,-523.25"/>
<polyline fill="none" stroke="black" points="503,-523.25 503,-471.25"/>
<polyline fill="none" stroke="black" points="503,-523.25 507,-527.25"/>
<text xml:space="preserve" text-anchor="middle" x="460" y="-513.75" font-family="Arial" font-size="10.00">APP CPU</text>
<text xml:space="preserve" text-anchor="middle" x="460" y="-501.75" font-family="Arial" font-size="10.00">(Application)</text>
<text xml:space="preserve" text-anchor="middle" x="460" y="-489.75" font-family="Arial" font-size="10.00">Xtensa LX6 32&#45;bit</text>
<text xml:space="preserve" text-anchor="middle" x="460" y="-477.75" font-family="Arial" font-size="10.00">240 MHz</text>
</g>
<!-- app_cpu&#45;&gt;bus_matrix -->
<g id="edge2" class="edge">
<title>app_cpu&#45;&gt;bus_matrix</title>
<path fill="none" stroke="black" d="M443.2,-471.1C436.07,-459.58 427.79,-446.19 420.67,-434.7"/>
<polygon fill="black" stroke="black" points="423.82,-433.13 415.58,-426.46 417.87,-436.81 423.82,-433.13"/>
<text xml:space="preserve" text-anchor="middle" x="450.38" y="-444.7" font-family="Arial" font-size="9.00">AHB Bus</text>
</g>
<!-- peripheral_bus -->
<g id="node4" class="node">
<title>peripheral_bus</title>
<polygon fill="yellow" stroke="black" points="384.75,-342.25 319.25,-342.25 319.25,-298.25 384.75,-298.25 384.75,-342.25"/>
<text xml:space="preserve" text-anchor="middle" x="352" y="-328.75" font-family="Arial" font-size="10.00">Peripheral</text>
<text xml:space="preserve" text-anchor="middle" x="352" y="-316.75" font-family="Arial" font-size="10.00">Subsystem</text>
<text xml:space="preserve" text-anchor="middle" x="352" y="-304.75" font-family="Arial" font-size="10.00">Bus</text>
</g>
<!-- bus_matrix&#45;&gt;peripheral_bus -->
<g id="edge3" class="edge">
<title>bus_matrix&#45;&gt;peripheral_bus</title>
<path fill="none" stroke="black" d="M386.88,-388.45C382.09,-383.06 377.14,-376.91 373.25,-370.75 369.82,-365.31 366.7,-359.23 363.97,-353.23"/>
<polygon fill="black" stroke="black" points="367.21,-351.93 360.08,-344.09 360.77,-354.66 367.21,-351.93"/>
<text xml:space="preserve" text-anchor="middle" x="397.62" y="-362.2" font-family="Arial" font-size="9.00">Internal Bus</text>
</g>
<!-- memory -->
<g id="node15" class="node">
<title>memory</title>
<polygon fill="lightsteelblue" stroke="black" points="506.88,-338.25 403.12,-338.25 403.12,-302.25 506.88,-302.25 506.88,-338.25"/>
<text xml:space="preserve" text-anchor="middle" x="455" y="-322.75" font-family="Arial" font-size="10.00">Memory Subsystem</text>
<text xml:space="preserve" text-anchor="middle" x="455" y="-310.75" font-family="Arial" font-size="10.00">SRAM, Flash, RTC</text>
</g>
<!-- bus_matrix&#45;&gt;memory -->
<g id="edge4" class="edge">
<title>bus_matrix&#45;&gt;memory</title>
<path fill="none" stroke="black" d="M414.32,-388.65C421.33,-377.04 430.73,-361.46 438.74,-348.2"/>
<polygon fill="black" stroke="black" points="441.57,-350.28 443.74,-339.91 435.57,-346.66 441.57,-350.28"/>
<text xml:space="preserve" text-anchor="middle" x="456.53" y="-362.2" font-family="Arial" font-size="9.00">Memory Bus</text>
</g>
<!-- io_mux -->
<g id="node5" class="node">
<title>io_mux</title>
<polygon fill="pink" stroke="black" points="395.25,-251.75 308.75,-251.75 308.75,-207.75 395.25,-207.75 395.25,-251.75"/>
<text xml:space="preserve" text-anchor="middle" x="352" y="-238.25" font-family="Arial" font-size="10.00">IO MUX &amp;</text>
<text xml:space="preserve" text-anchor="middle" x="352" y="-226.25" font-family="Arial" font-size="10.00">GPIO Matrix</text>
<text xml:space="preserve" text-anchor="middle" x="352" y="-214.25" font-family="Arial" font-size="10.00">Routing System</text>
</g>
<!-- peripheral_bus&#45;&gt;io_mux -->
<g id="edge5" class="edge">
<title>peripheral_bus&#45;&gt;io_mux</title>
<path fill="none" stroke="black" d="M352,-297.83C352,-287.5 352,-274.89 352,-263.4"/>
<polygon fill="black" stroke="black" points="355.5,-263.49 352,-253.49 348.5,-263.49 355.5,-263.49"/>
<text xml:space="preserve" text-anchor="middle" x="385" y="-271.7" font-family="Arial" font-size="9.00">Register Access</text>
</g>
<!-- gpio_pins -->
<g id="node6" class="node">
<title>gpio_pins</title>
<polygon fill="lightcyan" stroke="black" points="399.38,-161.25 304.62,-161.25 304.62,-117.25 399.38,-117.25 399.38,-161.25"/>
<text xml:space="preserve" text-anchor="middle" x="352" y="-147.75" font-family="Arial" font-size="10.00">GPIO PINS</text>
<text xml:space="preserve" text-anchor="middle" x="352" y="-135.75" font-family="Arial" font-size="10.00">(40 pins available)</text>
<text xml:space="preserve" text-anchor="middle" x="352" y="-123.75" font-family="Arial" font-size="10.00">Multi&#45;function I/O</text>
</g>
<!-- io_mux&#45;&gt;gpio_pins -->
<g id="edge6" class="edge">
<title>io_mux&#45;&gt;gpio_pins</title>
<path fill="none" stroke="black" d="M352,-207.33C352,-197 352,-184.39 352,-172.9"/>
<polygon fill="black" stroke="black" points="355.5,-172.99 352,-162.99 348.5,-172.99 355.5,-172.99"/>
<text xml:space="preserve" text-anchor="middle" x="368.5" y="-181.2" font-family="Arial" font-size="9.00">Pin Mux</text>
</g>
<!-- adc -->
<g id="node7" class="node">
<title>adc</title>
<polygon fill="lightcoral" stroke="black" points="84.25,-60 15.75,-60 15.75,-16 84.25,-16 84.25,-60"/>
<text xml:space="preserve" text-anchor="middle" x="50" y="-46.5" font-family="Arial" font-size="10.00">ADC</text>
<text xml:space="preserve" text-anchor="middle" x="50" y="-34.5" font-family="Arial" font-size="10.00">18 channels</text>
<text xml:space="preserve" text-anchor="middle" x="50" y="-22.5" font-family="Arial" font-size="10.00">12&#45;bit</text>
</g>
<!-- gpio_pins&#45;&gt;adc -->
<g id="edge7" class="edge">
<title>gpio_pins&#45;&gt;adc</title>
<path fill="none" stroke="#141414" stroke-dasharray="5,2" d="M304.27,-138.84C249.63,-137.48 159.17,-128.84 93,-90.25 84.03,-85.02 76.09,-77.2 69.54,-69.23"/>
<polygon fill="#141414" stroke="#141414" points="72.51,-67.35 63.68,-61.5 66.94,-71.59 72.51,-67.35"/>
</g>
<!-- dac -->
<g id="node8" class="node">
<title>dac</title>
<polygon fill="lightcoral" stroke="black" points="165.62,-60 102.38,-60 102.38,-16 165.62,-16 165.62,-60"/>
<text xml:space="preserve" text-anchor="middle" x="134" y="-46.5" font-family="Arial" font-size="10.00">DAC</text>
<text xml:space="preserve" text-anchor="middle" x="134" y="-34.5" font-family="Arial" font-size="10.00">2 channels</text>
<text xml:space="preserve" text-anchor="middle" x="134" y="-22.5" font-family="Arial" font-size="10.00">8&#45;bit</text>
</g>
<!-- gpio_pins&#45;&gt;dac -->
<g id="edge8" class="edge">
<title>gpio_pins&#45;&gt;dac</title>
<path fill="none" stroke="red" stroke-dasharray="5,2" d="M304.35,-133.51C266.69,-127.93 214.14,-115.92 175,-90.25 166.8,-84.87 159.49,-77.33 153.38,-69.67"/>
<polygon fill="red" stroke="red" points="156.21,-67.61 147.46,-61.64 150.58,-71.76 156.21,-67.61"/>
</g>
<!-- pwm -->
<g id="node9" class="node">
<title>pwm</title>
<polygon fill="lightcoral" stroke="black" points="252.25,-60 183.75,-60 183.75,-16 252.25,-16 252.25,-60"/>
<text xml:space="preserve" text-anchor="middle" x="218" y="-46.5" font-family="Arial" font-size="10.00">PWM</text>
<text xml:space="preserve" text-anchor="middle" x="218" y="-34.5" font-family="Arial" font-size="10.00">16 channels</text>
<text xml:space="preserve" text-anchor="middle" x="218" y="-22.5" font-family="Arial" font-size="10.00">LEDC</text>
</g>
<!-- gpio_pins&#45;&gt;pwm -->
<g id="edge9" class="edge">
<title>gpio_pins&#45;&gt;pwm</title>
<path fill="none" stroke="red" stroke-dasharray="5,2" d="M304.17,-116.94C289.91,-109.5 274.71,-100.44 262,-90.25 254.31,-84.08 246.92,-76.44 240.47,-68.95"/>
<polygon fill="red" stroke="red" points="243.39,-66.99 234.32,-61.5 237.98,-71.44 243.39,-66.99"/>
</g>
<!-- i2c -->
<g id="node10" class="node">
<title>i2c</title>
<polygon fill="lightcoral" stroke="black" points="337.5,-60 270.5,-60 270.5,-16 337.5,-16 337.5,-60"/>
<text xml:space="preserve" text-anchor="middle" x="304" y="-46.5" font-family="Arial" font-size="10.00">I2C</text>
<text xml:space="preserve" text-anchor="middle" x="304" y="-34.5" font-family="Arial" font-size="10.00">2 interfaces</text>
<text xml:space="preserve" text-anchor="middle" x="304" y="-22.5" font-family="Arial" font-size="10.00">SDA/SCL</text>
</g>
<!-- gpio_pins&#45;&gt;i2c -->
<g id="edge10" class="edge">
<title>gpio_pins&#45;&gt;i2c</title>
<path fill="none" stroke="red" stroke-dasharray="5,2" d="M341.82,-117.2C335.25,-103.61 326.57,-85.68 319.19,-70.41"/>
<polygon fill="red" stroke="red" points="322.49,-69.2 314.99,-61.72 316.19,-72.25 322.49,-69.2"/>
</g>
<!-- spi -->
<g id="node11" class="node">
<title>spi</title>
<polygon fill="lightcoral" stroke="black" points="448.25,-60 355.75,-60 355.75,-16 448.25,-16 448.25,-60"/>
<text xml:space="preserve" text-anchor="middle" x="402" y="-46.5" font-family="Arial" font-size="10.00">SPI</text>
<text xml:space="preserve" text-anchor="middle" x="402" y="-34.5" font-family="Arial" font-size="10.00">3 interfaces</text>
<text xml:space="preserve" text-anchor="middle" x="402" y="-22.5" font-family="Arial" font-size="10.00">MOSI/MISO/CLK</text>
</g>
<!-- gpio_pins&#45;&gt;spi -->
<g id="edge11" class="edge">
<title>gpio_pins&#45;&gt;spi</title>
<path fill="none" stroke="red" stroke-dasharray="5,2" d="M362.6,-117.2C369.45,-103.61 378.48,-85.68 386.17,-70.41"/>
<polygon fill="red" stroke="red" points="389.18,-72.22 390.56,-61.71 382.93,-69.07 389.18,-72.22"/>
</g>
<!-- uart -->
<g id="node12" class="node">
<title>uart</title>
<polygon fill="lightcoral" stroke="black" points="533.5,-60 466.5,-60 466.5,-16 533.5,-16 533.5,-60"/>
<text xml:space="preserve" text-anchor="middle" x="500" y="-46.5" font-family="Arial" font-size="10.00">UART</text>
<text xml:space="preserve" text-anchor="middle" x="500" y="-34.5" font-family="Arial" font-size="10.00">3 interfaces</text>
<text xml:space="preserve" text-anchor="middle" x="500" y="-22.5" font-family="Arial" font-size="10.00">TX/RX</text>
</g>
<!-- gpio_pins&#45;&gt;uart -->
<g id="edge12" class="edge">
<title>gpio_pins&#45;&gt;uart</title>
<path fill="none" stroke="red" stroke-dasharray="5,2" d="M399.7,-121.71C418.6,-113.86 439.86,-103.3 457,-90.25 464.84,-84.28 472.2,-76.64 478.55,-69.1"/>
<polygon fill="red" stroke="red" points="481.05,-71.57 484.55,-61.57 475.58,-67.21 481.05,-71.57"/>
</g>
<!-- touch -->
<g id="node13" class="node">
<title>touch</title>
<polygon fill="lightcoral" stroke="black" points="620.25,-60 551.75,-60 551.75,-16 620.25,-16 620.25,-60"/>
<text xml:space="preserve" text-anchor="middle" x="586" y="-46.5" font-family="Arial" font-size="10.00">Touch</text>
<text xml:space="preserve" text-anchor="middle" x="586" y="-34.5" font-family="Arial" font-size="10.00">10 channels</text>
<text xml:space="preserve" text-anchor="middle" x="586" y="-22.5" font-family="Arial" font-size="10.00">Capacitive</text>
</g>
<!-- gpio_pins&#45;&gt;touch -->
<g id="edge13" class="edge">
<title>gpio_pins&#45;&gt;touch</title>
<path fill="none" stroke="red" stroke-dasharray="5,2" d="M399.55,-134.53C440.27,-129.5 499.1,-117.74 543,-90.25 551.63,-84.84 559.4,-77.13 565.87,-69.32"/>
<polygon fill="red" stroke="red" points="568.61,-71.5 571.94,-61.44 563.06,-67.23 568.61,-71.5"/>
</g>
<!-- i2s -->
<g id="node14" class="node">
<title>i2s</title>
<polygon fill="lightcoral" stroke="black" points="692,-60 638,-60 638,-16 692,-16 692,-60"/>
<text xml:space="preserve" text-anchor="middle" x="665" y="-46.5" font-family="Arial" font-size="10.00">I2S</text>
<text xml:space="preserve" text-anchor="middle" x="665" y="-34.5" font-family="Arial" font-size="10.00">Audio</text>
<text xml:space="preserve" text-anchor="middle" x="665" y="-22.5" font-family="Arial" font-size="10.00">Digital</text>
</g>
<!-- gpio_pins&#45;&gt;i2s -->
<g id="edge14" class="edge">
<title>gpio_pins&#45;&gt;i2s</title>
<path fill="none" stroke="red" stroke-dasharray="5,2" d="M399.79,-134.39C468.67,-128.1 591.69,-113.9 629,-90.25 636.94,-85.22 643.63,-77.73 649,-70.03"/>
<polygon fill="red" stroke="red" points="651.93,-71.94 654.29,-61.61 646,-68.22 651.93,-71.94"/>
</g>
</g>
</svg>
