<?xml version="1.0" encoding="UTF-8" standalone="no"?>
<!DOCTYPE svg PUBLIC "-//W3C//DTD SVG 1.1//EN"
 "http://www.w3.org/Graphics/SVG/1.1/DTD/svg11.dtd">
<!-- Generated by graphviz version 2.38.0 (20140413.2041)
 -->
<!-- Title: ESP32_GPIO2_LED_System Pages: 1 -->
<svg width="284pt" height="938pt"
 viewBox="0.00 0.00 284.00 937.51" xmlns="http://www.w3.org/2000/svg" xmlns:xlink="http://www.w3.org/1999/xlink">
<g id="graph0" class="graph" transform="scale(1 1) rotate(0) translate(4 933.51)">
<title>ESP32_GPIO2_LED_System</title>
<polygon fill="white" stroke="none" points="-4,4 -4,-933.51 280,-933.51 280,4 -4,4"/>
<text text-anchor="middle" x="138" y="-912.71" font-family="Arial Bold" font-size="16.00">ESP32 GPIO2 → LED Control Flow</text>
<g id="clust1" class="cluster"><title>cluster_cpu</title>
<polygon fill="#e6f3ff" stroke="black" points="86,-739.51 86,-895.51 194,-895.51 194,-739.51 86,-739.51"/>
<text text-anchor="middle" x="140" y="-881.91" font-family="Arial Bold" font-size="12.00">ESP32 Core</text>
</g>
<g id="clust2" class="cluster"><title>cluster_gpio</title>
<polygon fill="#f0fff0" stroke="black" points="86,-388.51 86,-627.51 194,-627.51 194,-388.51 86,-388.51"/>
<text text-anchor="middle" x="140" y="-613.91" font-family="Arial Bold" font-size="12.00">GPIO System</text>
</g>
<g id="clust3" class="cluster"><title>cluster_external</title>
<polygon fill="#fffacd" stroke="black" points="82,-8 82,-256.255 186,-256.255 186,-8 82,-8"/>
<text text-anchor="middle" x="134" y="-242.655" font-family="Arial Bold" font-size="12.00">External Circuit</text>
</g>
<!-- app -->
<g id="node1" class="node"><title>app</title>
<polygon fill="#87ceeb" stroke="black" points="186,-866.51 94,-866.51 94,-830.51 186,-830.51 186,-866.51"/>
<text text-anchor="middle" x="140" y="-851.71" font-family="Arial" font-size="11.00">User Code</text>
<text text-anchor="middle" x="140" y="-839.71" font-family="Arial" font-size="11.00">gpio_set_level()</text>
</g>
<!-- esp_idf -->
<g id="node2" class="node"><title>esp_idf</title>
<polygon fill="#98fb98" stroke="black" points="178,-783.51 102,-783.51 102,-747.51 178,-747.51 178,-783.51"/>
<text text-anchor="middle" x="140" y="-768.71" font-family="Arial" font-size="11.00">ESP&#45;IDF</text>
<text text-anchor="middle" x="140" y="-756.71" font-family="Arial" font-size="11.00">GPIO Driver</text>
</g>
<!-- app&#45;&gt;esp_idf -->
<g id="edge1" class="edge"><title>app&#45;&gt;esp_idf</title>
<path fill="none" stroke="blue" stroke-width="2" d="M140,-830.332C140,-819.7 140,-805.816 140,-793.713"/>
<polygon fill="blue" stroke="blue" stroke-width="2" points="143.5,-793.663 140,-783.663 136.5,-793.663 143.5,-793.663"/>
<text text-anchor="middle" x="158" y="-804.51" font-family="Arial" font-size="10.00">API Call</text>
</g>
<!-- bus_matrix -->
<g id="node3" class="node"><title>bus_matrix</title>
<polygon fill="#dda0dd" stroke="black" points="176.5,-700.51 103.5,-700.51 103.5,-664.51 176.5,-664.51 176.5,-700.51"/>
<text text-anchor="middle" x="140" y="-685.71" font-family="Arial" font-size="11.00">Bus Matrix</text>
<text text-anchor="middle" x="140" y="-673.71" font-family="Arial" font-size="11.00">(AHB/APB)</text>
</g>
<!-- esp_idf&#45;&gt;bus_matrix -->
<g id="edge2" class="edge"><title>esp_idf&#45;&gt;bus_matrix</title>
<path fill="none" stroke="blue" stroke-width="2" d="M140,-747.332C140,-736.7 140,-722.816 140,-710.713"/>
<polygon fill="blue" stroke="blue" stroke-width="2" points="143.5,-710.663 140,-700.663 136.5,-710.663 143.5,-710.663"/>
<text text-anchor="middle" x="170.5" y="-721.51" font-family="Arial" font-size="10.00">Register Write</text>
</g>
<!-- gpio_reg -->
<g id="node4" class="node"><title>gpio_reg</title>
<polygon fill="#f0e68c" stroke="black" points="186.5,-598.51 93.5,-598.51 93.5,-562.51 186.5,-562.51 186.5,-598.51"/>
<text text-anchor="middle" x="140" y="-583.71" font-family="Arial" font-size="11.00">GPIO Registers</text>
<text text-anchor="middle" x="140" y="-571.71" font-family="Arial" font-size="11.00">OUT_REG[2]</text>
</g>
<!-- bus_matrix&#45;&gt;gpio_reg -->
<g id="edge3" class="edge"><title>bus_matrix&#45;&gt;gpio_reg</title>
<path fill="none" stroke="blue" stroke-width="2" d="M140,-664.091C140,-648.891 140,-626.577 140,-608.974"/>
<polygon fill="blue" stroke="blue" stroke-width="2" points="143.5,-608.729 140,-598.729 136.5,-608.729 143.5,-608.729"/>
<text text-anchor="middle" x="158.5" y="-638.51" font-family="Arial" font-size="10.00">Set Bit 2</text>
</g>
<!-- gpio_matrix -->
<g id="node5" class="node"><title>gpio_matrix</title>
<polygon fill="#ffb6c1" stroke="black" points="177.5,-515.51 94.5,-515.51 94.5,-479.51 177.5,-479.51 177.5,-515.51"/>
<text text-anchor="middle" x="136" y="-500.71" font-family="Arial" font-size="11.00">GPIO Matrix</text>
<text text-anchor="middle" x="136" y="-488.71" font-family="Arial" font-size="11.00">Signal Router</text>
</g>
<!-- gpio_reg&#45;&gt;gpio_matrix -->
<g id="edge4" class="edge"><title>gpio_reg&#45;&gt;gpio_matrix</title>
<path fill="none" stroke="red" stroke-width="2" d="M139.152,-562.332C138.627,-551.7 137.941,-537.816 137.343,-525.713"/>
<polygon fill="red" stroke="red" stroke-width="2" points="140.836,-525.478 136.847,-515.663 133.845,-525.823 140.836,-525.478"/>
<text text-anchor="middle" x="166.5" y="-536.51" font-family="Arial" font-size="10.00">Digital Signal</text>
</g>
<!-- io_mux -->
<g id="node6" class="node"><title>io_mux</title>
<polygon fill="#ffa07a" stroke="black" points="165,-432.51 101,-432.51 101,-396.51 165,-396.51 165,-432.51"/>
<text text-anchor="middle" x="133" y="-417.71" font-family="Arial" font-size="11.00">IO MUX</text>
<text text-anchor="middle" x="133" y="-405.71" font-family="Arial" font-size="11.00">Pin Driver</text>
</g>
<!-- gpio_matrix&#45;&gt;io_mux -->
<g id="edge5" class="edge"><title>gpio_matrix&#45;&gt;io_mux</title>
<path fill="none" stroke="red" stroke-width="2" d="M135.364,-479.332C134.97,-468.7 134.456,-454.816 134.008,-442.713"/>
<polygon fill="red" stroke="red" stroke-width="2" points="137.503,-442.526 133.635,-432.663 130.508,-442.786 137.503,-442.526"/>
<text text-anchor="middle" x="160.5" y="-453.51" font-family="Arial" font-size="10.00">Route to Pin</text>
</g>
<!-- gpio2_pin -->
<g id="node7" class="node"><title>gpio2_pin</title>
<ellipse fill="#90ee90" stroke="black" cx="133" cy="-326.882" rx="53.9813" ry="22.7556"/>
<text text-anchor="middle" x="133" y="-330.082" font-family="Arial" font-size="11.00">GPIO 2</text>
<text text-anchor="middle" x="133" y="-318.082" font-family="Arial" font-size="11.00">Physical Pin</text>
</g>
<!-- io_mux&#45;&gt;gpio2_pin -->
<g id="edge6" class="edge"><title>io_mux&#45;&gt;gpio2_pin</title>
<path fill="none" stroke="red" stroke-width="3" d="M133,-396.182C133,-385.825 133,-372.341 133,-360.092"/>
<polygon fill="red" stroke="red" stroke-width="3" points="136.5,-359.756 133,-349.756 129.5,-359.756 136.5,-359.756"/>
<text text-anchor="middle" x="150" y="-370.51" font-family="Arial" font-size="10.00">3.3V/0V</text>
</g>
<!-- resistor -->
<g id="node8" class="node"><title>resistor</title>
<polygon fill="#ffe4b5" stroke="black" points="161,-227.255 105,-227.255 105,-191.255 161,-191.255 161,-227.255"/>
<text text-anchor="middle" x="133" y="-212.455" font-family="Arial" font-size="11.00">470Ω</text>
<text text-anchor="middle" x="133" y="-200.455" font-family="Arial" font-size="11.00">Resistor</text>
</g>
<!-- gpio2_pin&#45;&gt;resistor -->
<g id="edge7" class="edge"><title>gpio2_pin&#45;&gt;resistor</title>
<path fill="none" stroke="red" stroke-width="2" d="M133,-304.134C133,-285.28 133,-257.906 133,-237.577"/>
<polygon fill="red" stroke="red" stroke-width="2" points="136.5,-237.39 133,-227.39 129.5,-237.39 136.5,-237.39"/>
<text text-anchor="middle" x="149" y="-278.255" font-family="Arial" font-size="10.00">Current</text>
<text text-anchor="middle" x="149" y="-267.255" font-family="Arial" font-size="10.00">Limit</text>
</g>
<!-- led -->
<g id="node9" class="node"><title>led</title>
<ellipse fill="#ff6b6b" stroke="black" cx="133" cy="-121.627" rx="43.2674" ry="22.7556"/>
<text text-anchor="middle" x="133" y="-124.827" font-family="Arial" font-size="11.00">Red LED</text>
<text text-anchor="middle" x="133" y="-112.827" font-family="Arial" font-size="11.00">1.7V</text>
</g>
<!-- resistor&#45;&gt;led -->
<g id="edge8" class="edge"><title>resistor&#45;&gt;led</title>
<path fill="none" stroke="red" stroke-width="2" d="M133,-190.927C133,-180.571 133,-167.086 133,-154.838"/>
<polygon fill="red" stroke="red" stroke-width="2" points="136.5,-154.501 133,-144.501 129.5,-154.502 136.5,-154.501"/>
<text text-anchor="middle" x="147" y="-165.255" font-family="Arial" font-size="10.00">3.4mA</text>
</g>
<!-- gnd -->
<g id="node10" class="node"><title>gnd</title>
<polygon fill="#d3d3d3" stroke="black" points="153,-52 99,-52 99,-16 153,-16 153,-52"/>
<text text-anchor="middle" x="126" y="-31.2" font-family="Arial" font-size="11.00">GND</text>
</g>
<!-- led&#45;&gt;gnd -->
<g id="edge9" class="edge"><title>led&#45;&gt;gnd</title>
<path fill="none" stroke="blue" stroke-width="2" d="M131.197,-98.5762C130.292,-87.4982 129.186,-73.9731 128.228,-62.2501"/>
<polygon fill="blue" stroke="blue" stroke-width="2" points="131.702,-61.7941 127.399,-52.1126 124.725,-62.3645 131.702,-61.7941"/>
<text text-anchor="middle" x="156" y="-73" font-family="Arial" font-size="10.00">Return Path</text>
</g>
</g>
</svg>
