<?xml version="1.0" encoding="UTF-8" standalone="no"?>
<!DOCTYPE svg PUBLIC "-//W3C//DTD SVG 1.1//EN"
 "http://www.w3.org/Graphics/SVG/1.1/DTD/svg11.dtd">
<!-- Generated by graphviz version 13.1.2 (20250808.2320)
 -->
<!-- Title: ESP32_System_Overview Pages: 1 -->
<svg width="1298pt" height="499pt"
 viewBox="0.00 0.00 1298.00 499.00" xmlns="http://www.w3.org/2000/svg" xmlns:xlink="http://www.w3.org/1999/xlink">
<g id="graph0" class="graph" transform="scale(1 1) rotate(0) translate(4 495.13)">
<title>ESP32_System_Overview</title>
<polygon fill="white" stroke="none" points="-4,4 -4,-495.13 1294,-495.13 1294,4 -4,4"/>
<text xml:space="preserve" text-anchor="middle" x="645" y="-473.83" font-family="Arial Bold" font-size="14.00">ESP32 Complete System Architecture</text>
<g id="clust1" class="cluster">
<title>cluster_cpu</title>
<polygon fill="#e6f3ff" stroke="black" points="316,-300.38 316,-459.38 430,-459.38 430,-300.38 316,-300.38"/>
<text xml:space="preserve" text-anchor="middle" x="373" y="-442.08" font-family="Times New Roman,serif" font-size="14.00">CPU Layer</text>
</g>
<g id="clust2" class="cluster">
<title>cluster_hal</title>
<polygon fill="#f0fff0" stroke="black" points="370,-8 370,-263.75 474,-263.75 474,-8 370,-8"/>
<text xml:space="preserve" text-anchor="middle" x="422" y="-246.45" font-family="Times New Roman,serif" font-size="14.00">Hardware Layer</text>
</g>
<g id="clust4" class="cluster">
<title>cluster_external</title>
<polygon fill="#fffacd" stroke="black" points="1029,-105.12 1029,-189.62 1138,-189.62 1138,-105.12 1029,-105.12"/>
<text xml:space="preserve" text-anchor="middle" x="1083.5" y="-172.32" font-family="Times New Roman,serif" font-size="14.00">External Devices</text>
</g>
<!-- app -->
<g id="node1" class="node">
<title>app</title>
<polygon fill="#87ceeb" stroke="black" points="421.5,-426.88 324.5,-426.88 324.5,-390.88 421.5,-390.88 421.5,-426.88"/>
<text xml:space="preserve" text-anchor="middle" x="373" y="-411.38" font-family="Arial" font-size="10.00">User Application</text>
<text xml:space="preserve" text-anchor="middle" x="373" y="-399.38" font-family="Arial" font-size="10.00">(FreeRTOS Tasks)</text>
</g>
<!-- esp_idf -->
<g id="node2" class="node">
<title>esp_idf</title>
<polygon fill="#98fb98" stroke="black" points="412.88,-344.38 333.12,-344.38 333.12,-308.38 412.88,-308.38 412.88,-344.38"/>
<text xml:space="preserve" text-anchor="middle" x="373" y="-328.88" font-family="Arial" font-size="10.00">ESP&#45;IDF APIs</text>
<text xml:space="preserve" text-anchor="middle" x="373" y="-316.88" font-family="Arial" font-size="10.00">Driver Layer</text>
</g>
<!-- app&#45;&gt;esp_idf -->
<g id="edge1" class="edge">
<title>app&#45;&gt;esp_idf</title>
<path fill="none" stroke="blue" stroke-width="2" d="M373,-390.41C373,-380.81 373,-368.63 373,-357.55"/>
<polygon fill="blue" stroke="blue" stroke-width="2" points="376.5,-357.84 373,-347.84 369.5,-357.84 376.5,-357.84"/>
<text xml:space="preserve" text-anchor="middle" x="391.75" y="-364.33" font-family="Arial" font-size="9.00">API Calls</text>
</g>
<!-- gpio_ctrl -->
<g id="node6" class="node">
<title>gpio_ctrl</title>
<polygon fill="#f0e68c" stroke="black" points="443,-257.25 385,-257.25 385,-221.25 443,-221.25 443,-257.25"/>
<text xml:space="preserve" text-anchor="middle" x="414" y="-241.75" font-family="Arial" font-size="10.00">GPIO</text>
<text xml:space="preserve" text-anchor="middle" x="414" y="-229.75" font-family="Arial" font-size="10.00">Controller</text>
</g>
<!-- esp_idf&#45;&gt;gpio_ctrl -->
<g id="edge2" class="edge">
<title>esp_idf&#45;&gt;gpio_ctrl</title>
<path fill="none" stroke="green" d="M381.3,-308.15C386.87,-296.57 394.34,-281.06 400.74,-267.79"/>
<polygon fill="green" stroke="green" points="403.73,-269.64 404.92,-259.11 397.43,-266.6 403.73,-269.64"/>
<text xml:space="preserve" text-anchor="middle" x="405.6" y="-281.83" font-family="Arial" font-size="9.00">GPIO</text>
</g>
<!-- uart_ctrl -->
<g id="node7" class="node">
<title>uart_ctrl</title>
<polygon fill="#f0e68c" stroke="black" points="58,-257.25 0,-257.25 0,-221.25 58,-221.25 58,-257.25"/>
<text xml:space="preserve" text-anchor="middle" x="29" y="-241.75" font-family="Arial" font-size="10.00">UART</text>
<text xml:space="preserve" text-anchor="middle" x="29" y="-229.75" font-family="Arial" font-size="10.00">Controller</text>
</g>
<!-- esp_idf&#45;&gt;uart_ctrl -->
<g id="edge3" class="edge">
<title>esp_idf&#45;&gt;uart_ctrl</title>
<path fill="none" stroke="green" d="M332.65,-322.92C272.43,-318.03 156.53,-303.81 67,-263.75 66.38,-263.47 65.76,-263.19 65.14,-262.89"/>
<polygon fill="green" stroke="green" points="66.9,-259.87 56.42,-258.32 63.65,-266.07 66.9,-259.87"/>
<text xml:space="preserve" text-anchor="middle" x="151.15" y="-281.83" font-family="Arial" font-size="9.00">UART</text>
</g>
<!-- i2c_ctrl -->
<g id="node8" class="node">
<title>i2c_ctrl</title>
<polygon fill="#f0e68c" stroke="black" points="134,-257.25 76,-257.25 76,-221.25 134,-221.25 134,-257.25"/>
<text xml:space="preserve" text-anchor="middle" x="105" y="-241.75" font-family="Arial" font-size="10.00">I2C</text>
<text xml:space="preserve" text-anchor="middle" x="105" y="-229.75" font-family="Arial" font-size="10.00">Controller</text>
</g>
<!-- esp_idf&#45;&gt;i2c_ctrl -->
<g id="edge4" class="edge">
<title>esp_idf&#45;&gt;i2c_ctrl</title>
<path fill="none" stroke="green" d="M332.69,-318.44C285.77,-309.49 206.59,-291.68 143,-263.75 142.38,-263.48 141.76,-263.2 141.13,-262.91"/>
<polygon fill="green" stroke="green" points="142.89,-259.87 132.4,-258.37 139.66,-266.09 142.89,-259.87"/>
<text xml:space="preserve" text-anchor="middle" x="217.53" y="-281.83" font-family="Arial" font-size="9.00">I2C</text>
</g>
<!-- spi_ctrl -->
<g id="node9" class="node">
<title>spi_ctrl</title>
<polygon fill="#f0e68c" stroke="black" points="210,-257.25 152,-257.25 152,-221.25 210,-221.25 210,-257.25"/>
<text xml:space="preserve" text-anchor="middle" x="181" y="-241.75" font-family="Arial" font-size="10.00">SPI</text>
<text xml:space="preserve" text-anchor="middle" x="181" y="-229.75" font-family="Arial" font-size="10.00">Controller</text>
</g>
<!-- esp_idf&#45;&gt;spi_ctrl -->
<g id="edge5" class="edge">
<title>esp_idf&#45;&gt;spi_ctrl</title>
<path fill="none" stroke="green" d="M332.93,-311.51C301.35,-300.07 256.54,-282.69 219,-263.75 218.53,-263.51 218.06,-263.27 217.59,-263.03"/>
<polygon fill="green" stroke="green" points="219.42,-260.04 208.98,-258.26 216.03,-266.17 219.42,-260.04"/>
<text xml:space="preserve" text-anchor="middle" x="284.25" y="-281.83" font-family="Arial" font-size="9.00">SPI</text>
</g>
<!-- adc_ctrl -->
<g id="node10" class="node">
<title>adc_ctrl</title>
<polygon fill="#f0e68c" stroke="black" points="286,-257.25 228,-257.25 228,-221.25 286,-221.25 286,-257.25"/>
<text xml:space="preserve" text-anchor="middle" x="257" y="-241.75" font-family="Arial" font-size="10.00">ADC</text>
<text xml:space="preserve" text-anchor="middle" x="257" y="-229.75" font-family="Arial" font-size="10.00">Controller</text>
</g>
<!-- esp_idf&#45;&gt;adc_ctrl -->
<g id="edge6" class="edge">
<title>esp_idf&#45;&gt;adc_ctrl</title>
<path fill="none" stroke="green" d="M349.25,-307.95C332.12,-295.38 308.79,-278.26 289.88,-264.38"/>
<polygon fill="green" stroke="green" points="292.08,-261.65 281.94,-258.55 287.93,-267.29 292.08,-261.65"/>
<text xml:space="preserve" text-anchor="middle" x="331.7" y="-281.83" font-family="Arial" font-size="9.00">ADC</text>
</g>
<!-- ledc_ctrl -->
<g id="node11" class="node">
<title>ledc_ctrl</title>
<polygon fill="#f0e68c" stroke="black" points="362,-257.25 304,-257.25 304,-221.25 362,-221.25 362,-257.25"/>
<text xml:space="preserve" text-anchor="middle" x="333" y="-241.75" font-family="Arial" font-size="10.00">LEDC</text>
<text xml:space="preserve" text-anchor="middle" x="333" y="-229.75" font-family="Arial" font-size="10.00">Controller</text>
</g>
<!-- esp_idf&#45;&gt;ledc_ctrl -->
<g id="edge7" class="edge">
<title>esp_idf&#45;&gt;ledc_ctrl</title>
<path fill="none" stroke="green" d="M364.91,-308.15C359.47,-296.57 352.18,-281.06 345.94,-267.79"/>
<polygon fill="green" stroke="green" points="349.28,-266.68 341.86,-259.11 342.95,-269.65 349.28,-266.68"/>
<text xml:space="preserve" text-anchor="middle" x="366.27" y="-281.83" font-family="Arial" font-size="9.00">PWM</text>
</g>
<!-- wifi_ctrl -->
<g id="node12" class="node">
<title>wifi_ctrl</title>
<polygon fill="#f0e68c" stroke="black" points="911,-257.25 853,-257.25 853,-221.25 911,-221.25 911,-257.25"/>
<text xml:space="preserve" text-anchor="middle" x="882" y="-241.75" font-family="Arial" font-size="10.00">WiFi</text>
<text xml:space="preserve" text-anchor="middle" x="882" y="-229.75" font-family="Arial" font-size="10.00">Controller</text>
</g>
<!-- esp_idf&#45;&gt;wifi_ctrl -->
<g id="edge8" class="edge">
<title>esp_idf&#45;&gt;wifi_ctrl</title>
<path fill="none" stroke="green" d="M413.37,-316.92C461.13,-307.12 543.1,-290.89 614,-279.88 672.4,-270.81 687.53,-272.37 746,-263.75 778.25,-259 814.64,-252.66 841.66,-247.76"/>
<polygon fill="green" stroke="green" points="841.92,-251.27 851.13,-246.03 840.66,-244.38 841.92,-251.27"/>
<text xml:space="preserve" text-anchor="middle" x="623" y="-281.83" font-family="Arial" font-size="9.00">WiFi</text>
</g>
<!-- bt_ctrl -->
<g id="node13" class="node">
<title>bt_ctrl</title>
<polygon fill="#f0e68c" stroke="black" points="737,-257.25 679,-257.25 679,-221.25 737,-221.25 737,-257.25"/>
<text xml:space="preserve" text-anchor="middle" x="708" y="-241.75" font-family="Arial" font-size="10.00">Bluetooth</text>
<text xml:space="preserve" text-anchor="middle" x="708" y="-229.75" font-family="Arial" font-size="10.00">Controller</text>
</g>
<!-- esp_idf&#45;&gt;bt_ctrl -->
<g id="edge9" class="edge">
<title>esp_idf&#45;&gt;bt_ctrl</title>
<path fill="none" stroke="green" d="M413.37,-310.51C440.45,-300.91 477.05,-288.61 510,-279.88 563.82,-265.61 627.07,-253.8 667.33,-246.88"/>
<polygon fill="green" stroke="green" points="667.79,-250.35 677.06,-245.23 666.62,-243.45 667.79,-250.35"/>
<text xml:space="preserve" text-anchor="middle" x="529.5" y="-281.83" font-family="Arial" font-size="9.00">Bluetooth</text>
</g>
<!-- cpu0 -->
<g id="node3" class="node">
<title>cpu0</title>
<ellipse fill="#ffe4b5" stroke="black" cx="1157" cy="-239.25" rx="45.79" ry="22.63"/>
<text xml:space="preserve" text-anchor="middle" x="1157" y="-241.75" font-family="Arial" font-size="10.00">CPU 0</text>
<text xml:space="preserve" text-anchor="middle" x="1157" y="-229.75" font-family="Arial" font-size="10.00">PRO_CPU</text>
</g>
<!-- cpu0&#45;&gt;esp_idf -->
<g id="edge10" class="edge">
<title>cpu0&#45;&gt;esp_idf</title>
<path fill="none" stroke="orange" stroke-dasharray="5,2" d="M1119.93,-252.8C1106.54,-256.89 1091.22,-261.07 1077,-263.75 835.72,-309.28 541.45,-321.29 424.49,-324.36"/>
<polygon fill="orange" stroke="orange" points="424.5,-320.86 414.59,-324.61 424.67,-327.85 424.5,-320.86"/>
</g>
<!-- memory -->
<g id="node5" class="node">
<title>memory</title>
<polygon fill="#dda0dd" stroke="black" points="1218.12,-153.12 1145.88,-153.12 1145.88,-117.12 1218.12,-117.12 1218.12,-153.12"/>
<text xml:space="preserve" text-anchor="middle" x="1182" y="-137.62" font-family="Arial" font-size="10.00">Memory</text>
<text xml:space="preserve" text-anchor="middle" x="1182" y="-125.62" font-family="Arial" font-size="10.00">SRAM/Flash</text>
</g>
<!-- cpu0&#45;&gt;memory -->
<g id="edge12" class="edge">
<title>cpu0&#45;&gt;memory</title>
<path fill="none" stroke="orange" stroke-dasharray="5,2" d="M1162.36,-216.34C1166.06,-201.25 1171,-181.05 1175.01,-164.69"/>
<polygon fill="orange" stroke="orange" points="1178.39,-165.61 1177.36,-155.06 1171.59,-163.94 1178.39,-165.61"/>
</g>
<!-- cpu1 -->
<g id="node4" class="node">
<title>cpu1</title>
<ellipse fill="#ffe4b5" stroke="black" cx="1023" cy="-239.25" rx="44.72" ry="22.63"/>
<text xml:space="preserve" text-anchor="middle" x="1023" y="-241.75" font-family="Arial" font-size="10.00">CPU 1</text>
<text xml:space="preserve" text-anchor="middle" x="1023" y="-229.75" font-family="Arial" font-size="10.00">APP_CPU</text>
</g>
<!-- cpu1&#45;&gt;esp_idf -->
<g id="edge11" class="edge">
<title>cpu1&#45;&gt;esp_idf</title>
<path fill="none" stroke="orange" stroke-dasharray="5,2" d="M983.64,-250.63C964.55,-255.3 941.21,-260.49 920,-263.75 831.86,-277.29 808.68,-270.49 720,-279.88 663.94,-285.81 506.82,-307.05 424.61,-318.29"/>
<polygon fill="orange" stroke="orange" points="424.22,-314.81 414.78,-319.63 425.17,-321.74 424.22,-314.81"/>
</g>
<!-- cpu1&#45;&gt;memory -->
<g id="edge13" class="edge">
<title>cpu1&#45;&gt;memory</title>
<path fill="none" stroke="orange" stroke-dasharray="5,2" d="M1062.48,-228.02C1087.08,-220.29 1118.43,-207.85 1142,-189.62 1151.4,-182.36 1159.68,-172.34 1166.23,-162.94"/>
<polygon fill="orange" stroke="orange" points="1169.03,-165.05 1171.58,-154.77 1163.17,-161.22 1169.03,-165.05"/>
</g>
<!-- gpio_matrix -->
<g id="node14" class="node">
<title>gpio_matrix</title>
<polygon fill="#ffb6c1" stroke="black" points="459.62,-153.12 378.38,-153.12 378.38,-117.12 459.62,-117.12 459.62,-153.12"/>
<text xml:space="preserve" text-anchor="middle" x="419" y="-137.62" font-family="Arial" font-size="10.00">GPIO Matrix</text>
<text xml:space="preserve" text-anchor="middle" x="419" y="-125.62" font-family="Arial" font-size="10.00">(Signal Router)</text>
</g>
<!-- gpio_ctrl&#45;&gt;gpio_matrix -->
<g id="edge14" class="edge">
<title>gpio_ctrl&#45;&gt;gpio_matrix</title>
<path fill="none" stroke="purple" d="M414.85,-220.93C415.6,-205.59 416.71,-182.92 417.59,-164.87"/>
<polygon fill="purple" stroke="purple" points="421.08,-165.2 418.07,-155.04 414.09,-164.86 421.08,-165.2"/>
</g>
<!-- uart_ctrl&#45;&gt;gpio_matrix -->
<g id="edge15" class="edge">
<title>uart_ctrl&#45;&gt;gpio_matrix</title>
<path fill="none" stroke="purple" d="M57.61,-220.81C60.72,-219.27 63.89,-217.83 67,-216.62 169.52,-176.73 296.88,-153.7 366.86,-143.16"/>
<polygon fill="purple" stroke="purple" points="367.12,-146.66 376.51,-141.74 366.1,-139.74 367.12,-146.66"/>
</g>
<!-- i2c_ctrl&#45;&gt;gpio_matrix -->
<g id="edge16" class="edge">
<title>i2c_ctrl&#45;&gt;gpio_matrix</title>
<path fill="none" stroke="purple" d="M134.11,-220.78C137.07,-219.28 140.06,-217.87 143,-216.62 218.46,-184.66 310.66,-160.59 367.08,-147.43"/>
<polygon fill="purple" stroke="purple" points="367.78,-150.86 376.74,-145.2 366.21,-144.03 367.78,-150.86"/>
</g>
<!-- spi_ctrl&#45;&gt;gpio_matrix -->
<g id="edge17" class="edge">
<title>spi_ctrl&#45;&gt;gpio_matrix</title>
<path fill="none" stroke="purple" d="M210.25,-221.09C213.18,-219.52 216.13,-218.01 219,-216.62 268.24,-192.83 326.42,-169.98 367.3,-154.74"/>
<polygon fill="purple" stroke="purple" points="368.5,-158.02 376.66,-151.27 366.07,-151.46 368.5,-158.02"/>
</g>
<!-- adc_ctrl&#45;&gt;gpio_matrix -->
<g id="edge18" class="edge">
<title>adc_ctrl&#45;&gt;gpio_matrix</title>
<path fill="none" stroke="purple" d="M284.48,-220.93C311.25,-204.05 352.12,-178.28 381.79,-159.58"/>
<polygon fill="purple" stroke="purple" points="383.51,-162.63 390.1,-154.34 379.78,-156.71 383.51,-162.63"/>
</g>
<!-- ledc_ctrl&#45;&gt;gpio_matrix -->
<g id="edge19" class="edge">
<title>ledc_ctrl&#45;&gt;gpio_matrix</title>
<path fill="none" stroke="purple" d="M347.59,-220.93C361.12,-204.86 381.44,-180.73 396.95,-162.31"/>
<polygon fill="purple" stroke="purple" points="399.6,-164.59 403.36,-154.69 394.25,-160.08 399.6,-164.59"/>
</g>
<!-- wireless -->
<g id="node27" class="node">
<title>wireless</title>
<polygon fill="#f0e68c" stroke="black" points="1096.62,-157.12 1039.38,-157.12 1039.38,-113.12 1096.62,-113.12 1096.62,-157.12"/>
<text xml:space="preserve" text-anchor="middle" x="1068" y="-143.62" font-family="Arial" font-size="10.00">Wireless</text>
<text xml:space="preserve" text-anchor="middle" x="1068" y="-131.62" font-family="Arial" font-size="10.00">WiFi</text>
<text xml:space="preserve" text-anchor="middle" x="1068" y="-119.62" font-family="Arial" font-size="10.00">Bluetooth</text>
</g>
<!-- wifi_ctrl&#45;&gt;wireless -->
<g id="edge37" class="edge">
<title>wifi_ctrl&#45;&gt;wireless</title>
<path fill="none" stroke="green" stroke-width="2" d="M911.35,-230.94C948.79,-221.23 1010.95,-203.67 1030,-189.62 1038.17,-183.6 1045.26,-175.28 1051.03,-167"/>
<polygon fill="green" stroke="green" stroke-width="2" points="1053.08,-170.29 1055.54,-159.99 1047.19,-166.5 1053.08,-170.29"/>
</g>
<!-- bt_ctrl&#45;&gt;wireless -->
<g id="edge38" class="edge">
<title>bt_ctrl&#45;&gt;wireless</title>
<path fill="none" stroke="green" stroke-width="2" d="M737.43,-233.45C764.96,-228.99 807.25,-222.21 844,-216.62 864.65,-213.48 1012.18,-200.51 1030,-189.62 1038.97,-184.14 1046.41,-175.66 1052.26,-167.05"/>
<polygon fill="green" stroke="green" stroke-width="2" points="1054.33,-170.36 1056.59,-160.01 1048.37,-166.69 1054.33,-170.36"/>
</g>
<!-- io_mux -->
<g id="node15" class="node">
<title>io_mux</title>
<polygon fill="#ffa07a" stroke="black" points="465.75,-52 400.25,-52 400.25,-16 465.75,-16 465.75,-52"/>
<text xml:space="preserve" text-anchor="middle" x="433" y="-36.5" font-family="Arial" font-size="10.00">IO MUX</text>
<text xml:space="preserve" text-anchor="middle" x="433" y="-24.5" font-family="Arial" font-size="10.00">(Pin Driver)</text>
</g>
<!-- gpio_matrix&#45;&gt;io_mux -->
<g id="edge20" class="edge">
<title>gpio_matrix&#45;&gt;io_mux</title>
<path fill="none" stroke="red" stroke-width="2" d="M405.86,-116.68C398.45,-104.63 391.7,-88.28 397.25,-74 398.86,-69.85 401.15,-65.87 403.79,-62.16"/>
<polygon fill="red" stroke="red" stroke-width="2" points="406.26,-64.66 409.99,-54.74 400.89,-60.17 406.26,-64.66"/>
<text xml:space="preserve" text-anchor="middle" x="426.12" y="-75.95" font-family="Arial" font-size="9.00">Route Signals</text>
</g>
<!-- gpio0 -->
<g id="node16" class="node">
<title>gpio0</title>
<ellipse fill="#90ee90" stroke="black" cx="838" cy="-135.12" rx="29.47" ry="29.47"/>
<text xml:space="preserve" text-anchor="middle" x="838" y="-131.62" font-family="Arial" font-size="10.00">GPIO 0</text>
</g>
<!-- io_mux&#45;&gt;gpio0 -->
<g id="edge21" class="edge">
<title>io_mux&#45;&gt;gpio0</title>
<path fill="none" stroke="brown" d="M466.03,-45.07C490.65,-52.7 525.07,-63.61 555,-74 567.56,-78.36 570.03,-81.59 583,-84.5 676.99,-105.61 709.62,-66.57 799,-102.5 802.21,-103.79 805.37,-105.44 808.4,-107.31"/>
<polygon fill="brown" stroke="brown" points="806.21,-110.05 816.4,-112.98 810.26,-104.34 806.21,-110.05"/>
</g>
<!-- gpio2 -->
<g id="node17" class="node">
<title>gpio2</title>
<ellipse fill="#90ee90" stroke="black" cx="761" cy="-135.12" rx="29.47" ry="29.47"/>
<text xml:space="preserve" text-anchor="middle" x="761" y="-131.62" font-family="Arial" font-size="10.00">GPIO 2</text>
</g>
<!-- io_mux&#45;&gt;gpio2 -->
<g id="edge22" class="edge">
<title>io_mux&#45;&gt;gpio2</title>
<path fill="none" stroke="brown" d="M466.1,-48.36C501.52,-62.62 553.27,-83.33 558,-84.5 629.6,-102.24 655.09,-73.68 723,-102.5 725.96,-103.76 728.87,-105.32 731.68,-107.08"/>
<polygon fill="brown" stroke="brown" points="729.39,-109.75 739.55,-112.75 733.48,-104.07 729.39,-109.75"/>
</g>
<!-- gpio4 -->
<g id="node18" class="node">
<title>gpio4</title>
<ellipse fill="#90ee90" stroke="black" cx="915" cy="-135.12" rx="29.47" ry="29.47"/>
<text xml:space="preserve" text-anchor="middle" x="915" y="-131.62" font-family="Arial" font-size="10.00">GPIO 4</text>
</g>
<!-- io_mux&#45;&gt;gpio4 -->
<g id="edge23" class="edge">
<title>io_mux&#45;&gt;gpio4</title>
<path fill="none" stroke="brown" d="M465.97,-42.75C495.94,-50.03 541.26,-61.63 580,-74 592.66,-78.04 595.01,-81.69 608,-84.5 666.34,-97.11 820.44,-80.68 876,-102.5 879.22,-103.77 882.38,-105.4 885.43,-107.26"/>
<polygon fill="brown" stroke="brown" points="883.24,-110 893.43,-112.9 887.27,-104.28 883.24,-110"/>
</g>
<!-- gpio5 -->
<g id="node19" class="node">
<title>gpio5</title>
<ellipse fill="#90ee90" stroke="black" cx="992" cy="-135.12" rx="29.47" ry="29.47"/>
<text xml:space="preserve" text-anchor="middle" x="992" y="-131.62" font-family="Arial" font-size="10.00">GPIO 5</text>
</g>
<!-- io_mux&#45;&gt;gpio5 -->
<g id="edge24" class="edge">
<title>io_mux&#45;&gt;gpio5</title>
<path fill="none" stroke="brown" d="M466.15,-38.69C506.83,-43.14 577.94,-50.69 639,-56 749.98,-65.65 780.94,-46.93 889,-74 919.2,-81.57 926.46,-86.22 953,-102.5 955.79,-104.21 958.59,-106.1 961.36,-108.07"/>
<polygon fill="brown" stroke="brown" points="959.19,-110.82 969.27,-114.09 963.43,-105.25 959.19,-110.82"/>
</g>
<!-- gpio25 -->
<g id="node21" class="node">
<title>gpio25</title>
<ellipse fill="#90ee90" stroke="black" cx="515" cy="-135.12" rx="32.62" ry="32.62"/>
<text xml:space="preserve" text-anchor="middle" x="515" y="-131.62" font-family="Arial" font-size="10.00">GPIO 25</text>
</g>
<!-- io_mux&#45;&gt;gpio25 -->
<g id="edge25" class="edge">
<title>io_mux&#45;&gt;gpio25</title>
<path fill="none" stroke="brown" d="M447.3,-52.29C458.32,-65.61 473.89,-84.43 487.32,-100.66"/>
<polygon fill="brown" stroke="brown" points="484.48,-102.73 493.55,-108.2 489.88,-98.26 484.48,-102.73"/>
</g>
<!-- gpio26 -->
<g id="node22" class="node">
<title>gpio26</title>
<ellipse fill="#90ee90" stroke="black" cx="681" cy="-135.12" rx="32.62" ry="32.62"/>
<text xml:space="preserve" text-anchor="middle" x="681" y="-131.62" font-family="Arial" font-size="10.00">GPIO 26</text>
</g>
<!-- io_mux&#45;&gt;gpio26 -->
<g id="edge26" class="edge">
<title>io_mux&#45;&gt;gpio26</title>
<path fill="none" stroke="brown" d="M462.23,-52.32C481.67,-63.12 508.12,-76.44 533,-84.5 578.88,-99.36 595.81,-83.2 640,-102.5 642.59,-103.63 645.17,-104.97 647.7,-106.43"/>
<polygon fill="brown" stroke="brown" points="645.55,-109.21 655.83,-111.78 649.4,-103.36 645.55,-109.21"/>
</g>
<!-- gpio27 -->
<g id="node23" class="node">
<title>gpio27</title>
<ellipse fill="#90ee90" stroke="black" cx="598" cy="-135.12" rx="32.62" ry="32.62"/>
<text xml:space="preserve" text-anchor="middle" x="598" y="-131.62" font-family="Arial" font-size="10.00">GPIO 27</text>
</g>
<!-- io_mux&#45;&gt;gpio27 -->
<g id="edge27" class="edge">
<title>io_mux&#45;&gt;gpio27</title>
<path fill="none" stroke="brown" d="M456.13,-52.29C470.55,-62.54 489.76,-75.29 508,-84.5 528.71,-94.96 536.69,-91.29 557,-102.5 559.48,-103.87 561.97,-105.38 564.43,-106.98"/>
<polygon fill="brown" stroke="brown" points="562.24,-109.72 572.45,-112.58 566.25,-103.98 562.24,-109.72"/>
</g>
<!-- sensor -->
<g id="node24" class="node">
<title>sensor</title>
<polygon fill="#87ceeb" stroke="black" points="875,-56 805,-56 805,-12 875,-12 875,-56"/>
<text xml:space="preserve" text-anchor="middle" x="840" y="-42.5" font-family="Arial" font-size="10.00">Sensors</text>
<text xml:space="preserve" text-anchor="middle" x="840" y="-30.5" font-family="Arial" font-size="10.00">Temperature</text>
<text xml:space="preserve" text-anchor="middle" x="840" y="-18.5" font-family="Arial" font-size="10.00">Pressure</text>
</g>
<!-- gpio0&#45;&gt;sensor -->
<g id="edge28" class="edge">
<title>gpio0&#45;&gt;sensor</title>
<path fill="none" stroke="blue" d="M828.05,-106.94C825.45,-96.65 823.84,-84.8 825.75,-74 826.14,-71.82 826.64,-69.6 827.21,-67.38"/>
<polygon fill="blue" stroke="blue" points="830.52,-68.53 830.17,-57.94 823.84,-66.43 830.52,-68.53"/>
<text xml:space="preserve" text-anchor="middle" x="835.88" y="-75.95" font-family="Arial" font-size="9.00">Input</text>
</g>
<!-- gpio2&#45;&gt;sensor -->
<g id="edge29" class="edge">
<title>gpio2&#45;&gt;sensor</title>
<path fill="none" stroke="blue" d="M775.78,-109.33C782.84,-98.16 791.71,-85.03 800.75,-74 803.4,-70.76 806.29,-67.5 809.25,-64.31"/>
<polygon fill="blue" stroke="blue" points="811.69,-66.83 816.12,-57.2 806.65,-61.96 811.69,-66.83"/>
<text xml:space="preserve" text-anchor="middle" x="810.88" y="-75.95" font-family="Arial" font-size="9.00">Input</text>
</g>
<!-- gpio4&#45;&gt;sensor -->
<g id="edge30" class="edge">
<title>gpio4&#45;&gt;sensor</title>
<path fill="none" stroke="blue" d="M897.42,-110.88C887.19,-97.36 874.17,-80.16 863.12,-65.56"/>
<polygon fill="blue" stroke="blue" points="865.93,-63.47 857.11,-57.61 860.35,-67.69 865.93,-63.47"/>
<text xml:space="preserve" text-anchor="middle" x="885.38" y="-75.95" font-family="Arial" font-size="9.00">Input</text>
</g>
<!-- display -->
<g id="node26" class="node">
<title>display</title>
<polygon fill="#dda0dd" stroke="black" points="1011,-56 957,-56 957,-12 1011,-12 1011,-56"/>
<text xml:space="preserve" text-anchor="middle" x="984" y="-42.5" font-family="Arial" font-size="10.00">Display</text>
<text xml:space="preserve" text-anchor="middle" x="984" y="-30.5" font-family="Arial" font-size="10.00">OLED</text>
<text xml:space="preserve" text-anchor="middle" x="984" y="-18.5" font-family="Arial" font-size="10.00">LCD</text>
</g>
<!-- gpio4&#45;&gt;display -->
<g id="edge35" class="edge">
<title>gpio4&#45;&gt;display</title>
<path fill="none" stroke="purple" d="M922.05,-106.01C925.55,-95.37 930.51,-83.55 937.25,-74 940.52,-69.37 944.47,-64.97 948.68,-60.9"/>
<polygon fill="purple" stroke="purple" points="950.69,-63.8 955.83,-54.53 946.03,-58.57 950.69,-63.8"/>
<text xml:space="preserve" text-anchor="middle" x="952.62" y="-75.95" font-family="Arial" font-size="9.00">I2C/SPI</text>
</g>
<!-- gpio5&#45;&gt;sensor -->
<g id="edge31" class="edge">
<title>gpio5&#45;&gt;sensor</title>
<path fill="none" stroke="blue" d="M986.37,-105.93C982.81,-94.64 977.1,-82.37 968,-74 945.78,-53.57 913.14,-43.83 886.38,-39.2"/>
<polygon fill="blue" stroke="blue" points="887.23,-35.79 876.82,-37.73 886.17,-42.71 887.23,-35.79"/>
<text xml:space="preserve" text-anchor="middle" x="985.98" y="-75.95" font-family="Arial" font-size="9.00">Input</text>
</g>
<!-- gpio5&#45;&gt;display -->
<g id="edge36" class="edge">
<title>gpio5&#45;&gt;display</title>
<path fill="none" stroke="purple" d="M1006.87,-109.27C1011.53,-98.44 1014.62,-85.6 1011,-74 1010.19,-71.41 1009.15,-68.85 1007.94,-66.34"/>
<polygon fill="purple" stroke="purple" points="1011.02,-64.68 1002.99,-57.76 1004.95,-68.17 1011.02,-64.68"/>
<text xml:space="preserve" text-anchor="middle" x="1027.95" y="-75.95" font-family="Arial" font-size="9.00">I2C/SPI</text>
</g>
<!-- gpio_dots -->
<g id="node20" class="node">
<title>gpio_dots</title>
<text xml:space="preserve" text-anchor="middle" x="1263" y="-131.62" font-family="Arial" font-size="10.00">...</text>
</g>
<!-- actuator -->
<g id="node25" class="node">
<title>actuator</title>
<polygon fill="#98fb98" stroke="black" points="706,-56 648,-56 648,-12 706,-12 706,-56"/>
<text xml:space="preserve" text-anchor="middle" x="677" y="-42.5" font-family="Arial" font-size="10.00">Actuators</text>
<text xml:space="preserve" text-anchor="middle" x="677" y="-30.5" font-family="Arial" font-size="10.00">LED</text>
<text xml:space="preserve" text-anchor="middle" x="677" y="-18.5" font-family="Arial" font-size="10.00">Motor</text>
</g>
<!-- gpio25&#45;&gt;actuator -->
<g id="edge32" class="edge">
<title>gpio25&#45;&gt;actuator</title>
<path fill="none" stroke="red" d="M540.16,-113.79C545.3,-109.9 550.75,-105.96 556,-102.5 582.42,-85.08 613.63,-67.74 637.74,-55"/>
<polygon fill="red" stroke="red" points="639.36,-58.1 646.59,-50.36 636.11,-51.9 639.36,-58.1"/>
<text xml:space="preserve" text-anchor="middle" x="615.03" y="-75.95" font-family="Arial" font-size="9.00">Output</text>
</g>
<!-- gpio26&#45;&gt;actuator -->
<g id="edge33" class="edge">
<title>gpio26&#45;&gt;actuator</title>
<path fill="none" stroke="red" d="M699.82,-108.07C705.16,-97.6 708.65,-85.34 705,-74 704.13,-71.29 702.99,-68.61 701.68,-66"/>
<polygon fill="red" stroke="red" points="704.82,-64.44 696.68,-57.67 698.82,-68.04 704.82,-64.44"/>
<text xml:space="preserve" text-anchor="middle" x="720" y="-75.95" font-family="Arial" font-size="9.00">Output</text>
</g>
<!-- gpio27&#45;&gt;actuator -->
<g id="edge34" class="edge">
<title>gpio27&#45;&gt;actuator</title>
<path fill="none" stroke="red" d="M624.39,-115.21C634.91,-106.71 646.5,-96 655,-84.5 659.01,-79.07 662.5,-72.8 665.45,-66.58"/>
<polygon fill="red" stroke="red" points="668.52,-68.28 669.29,-57.71 662.1,-65.5 668.52,-68.28"/>
<text xml:space="preserve" text-anchor="middle" x="674.85" y="-75.95" font-family="Arial" font-size="9.00">Output</text>
</g>
</g>
</svg>
