<?xml version="1.0" encoding="UTF-8" standalone="no"?>
<!DOCTYPE svg PUBLIC "-//W3C//DTD SVG 1.1//EN"
 "http://www.w3.org/Graphics/SVG/1.1/DTD/svg11.dtd">
<!-- Generated by graphviz version 13.1.2 (20250808.2320)
 -->
<!-- Title: GPIO_Matrix_Examples Pages: 1 -->
<svg width="686pt" height="383pt"
 viewBox="0.00 0.00 686.00 383.00" xmlns="http://www.w3.org/2000/svg" xmlns:xlink="http://www.w3.org/1999/xlink">
<g id="graph0" class="graph" transform="scale(1 1) rotate(0) translate(4 378.95)">
<title>GPIO_Matrix_Examples</title>
<polygon fill="white" stroke="none" points="-4,4 -4,-378.95 682,-378.95 682,4 -4,4"/>
<text xml:space="preserve" text-anchor="middle" x="339" y="-357.65" font-family="Arial Bold" font-size="14.00">GPIO Matrix: ตัวอย่างการ Route แบบยืดหยุ่น</text>
<g id="clust1" class="cluster">
<title>cluster_ex1</title>
<polygon fill="#e8f8f5" stroke="black" points="8,-111.35 8,-288.2 168,-288.2 168,-111.35 8,-111.35"/>
<text xml:space="preserve" text-anchor="middle" x="88" y="-273.75" font-family="Arial Bold" font-size="11.00">Example 1: Normal Routing</text>
</g>
<g id="clust2" class="cluster">
<title>cluster_ex2</title>
<polygon fill="#fff3e0" stroke="black" points="176,-111.35 176,-288.2 329,-288.2 329,-111.35 176,-111.35"/>
<text xml:space="preserve" text-anchor="middle" x="252.5" y="-273.75" font-family="Arial Bold" font-size="11.00">Example 2: Cross Routing</text>
</g>
<g id="clust3" class="cluster">
<title>cluster_ex3</title>
<polygon fill="#f3e5f5" stroke="black" points="337,-8 337,-288.2 498,-288.2 498,-8 337,-8"/>
<text xml:space="preserve" text-anchor="middle" x="417.5" y="-273.75" font-family="Arial Bold" font-size="11.00">Example 3: Signal Inversion</text>
</g>
<g id="clust4" class="cluster">
<title>cluster_ex4</title>
<polygon fill="#e1f5fe" stroke="black" points="506,-8 506,-288.2 670,-288.2 670,-8 506,-8"/>
<text xml:space="preserve" text-anchor="middle" x="588" y="-273.75" font-family="Arial Bold" font-size="11.00">Example 4: Multiple Sources</text>
</g>
<!-- uart1_tx -->
<g id="node1" class="node">
<title>uart1_tx</title>
<polygon fill="#ffe082" stroke="black" points="118.88,-258.7 57.12,-258.7 57.12,-222.7 118.88,-222.7 118.88,-258.7"/>
<text xml:space="preserve" text-anchor="middle" x="88" y="-237.4" font-family="Arial" font-size="9.00">UART1_TX</text>
</g>
<!-- gpio1 -->
<g id="node2" class="node">
<title>gpio1</title>
<ellipse fill="#c8e6c9" stroke="black" cx="88" cy="-148.15" rx="28.8" ry="28.8"/>
<text xml:space="preserve" text-anchor="middle" x="88" y="-144.85" font-family="Arial" font-size="9.00">GPIO1</text>
</g>
<!-- uart1_tx&#45;&gt;gpio1 -->
<g id="edge1" class="edge">
<title>uart1_tx&#45;&gt;gpio1</title>
<path fill="none" stroke="green" d="M88,-222.24C88,-212.68 88,-200.42 88,-188.69"/>
<polygon fill="green" stroke="green" points="91.5,-188.76 88,-178.76 84.5,-188.76 91.5,-188.76"/>
<text xml:space="preserve" text-anchor="middle" x="98.5" y="-197.1" font-family="Arial" font-size="8.00">Direct</text>
</g>
<!-- uart2_tx -->
<g id="node3" class="node">
<title>uart2_tx</title>
<polygon fill="#ffe082" stroke="black" points="246.88,-258.7 185.12,-258.7 185.12,-222.7 246.88,-222.7 246.88,-258.7"/>
<text xml:space="preserve" text-anchor="middle" x="216" y="-237.4" font-family="Arial" font-size="9.00">UART2_TX</text>
</g>
<!-- gpio3 -->
<g id="node6" class="node">
<title>gpio3</title>
<ellipse fill="#c8e6c9" stroke="black" cx="216" cy="-148.15" rx="28.8" ry="28.8"/>
<text xml:space="preserve" text-anchor="middle" x="216" y="-144.85" font-family="Arial" font-size="9.00">GPIO3</text>
</g>
<!-- uart2_tx&#45;&gt;gpio3 -->
<g id="edge2" class="edge">
<title>uart2_tx&#45;&gt;gpio3</title>
<path fill="none" stroke="orange" d="M216,-222.24C216,-212.68 216,-200.42 216,-188.69"/>
<polygon fill="orange" stroke="orange" points="219.5,-188.76 216,-178.76 212.5,-188.76 219.5,-188.76"/>
<text xml:space="preserve" text-anchor="middle" x="226.5" y="-197.1" font-family="Arial" font-size="8.00">Cross</text>
</g>
<!-- spi_clk -->
<g id="node4" class="node">
<title>spi_clk</title>
<polygon fill="#ffe082" stroke="black" points="319,-258.7 265,-258.7 265,-222.7 319,-222.7 319,-258.7"/>
<text xml:space="preserve" text-anchor="middle" x="292" y="-237.4" font-family="Arial" font-size="9.00">SPI_CLK</text>
</g>
<!-- gpio2 -->
<g id="node5" class="node">
<title>gpio2</title>
<ellipse fill="#c8e6c9" stroke="black" cx="292" cy="-148.15" rx="28.8" ry="28.8"/>
<text xml:space="preserve" text-anchor="middle" x="292" y="-144.85" font-family="Arial" font-size="9.00">GPIO2</text>
</g>
<!-- spi_clk&#45;&gt;gpio2 -->
<g id="edge3" class="edge">
<title>spi_clk&#45;&gt;gpio2</title>
<path fill="none" stroke="orange" d="M292,-222.24C292,-212.68 292,-200.42 292,-188.69"/>
<polygon fill="orange" stroke="orange" points="295.5,-188.76 292,-178.76 288.5,-188.76 295.5,-188.76"/>
<text xml:space="preserve" text-anchor="middle" x="302.5" y="-197.1" font-family="Arial" font-size="8.00">Cross</text>
</g>
<!-- pwm_out -->
<g id="node7" class="node">
<title>pwm_out</title>
<polygon fill="#ffe082" stroke="black" points="448.88,-258.7 387.12,-258.7 387.12,-222.7 448.88,-222.7 448.88,-258.7"/>
<text xml:space="preserve" text-anchor="middle" x="418" y="-237.4" font-family="Arial" font-size="9.00">PWM_OUT</text>
</g>
<!-- inv_symbol -->
<g id="node9" class="node">
<title>inv_symbol</title>
<polygon fill="#ffcdd2" stroke="black" points="418,-166.15 391,-148.15 418,-130.15 445,-148.15 418,-166.15"/>
<text xml:space="preserve" text-anchor="middle" x="418" y="-144.85" font-family="Arial" font-size="9.00">!</text>
</g>
<!-- pwm_out&#45;&gt;inv_symbol -->
<g id="edge4" class="edge">
<title>pwm_out&#45;&gt;inv_symbol</title>
<path fill="none" stroke="blue" d="M418,-222.24C418,-209.71 418,-192.55 418,-178"/>
<polygon fill="blue" stroke="blue" points="421.5,-178.07 418,-168.07 414.5,-178.07 421.5,-178.07"/>
</g>
<!-- gpio4 -->
<g id="node8" class="node">
<title>gpio4</title>
<ellipse fill="#c8e6c9" stroke="black" cx="418" cy="-44.8" rx="28.8" ry="28.8"/>
<text xml:space="preserve" text-anchor="middle" x="418" y="-41.5" font-family="Arial" font-size="9.00">GPIO4</text>
</g>
<!-- inv_symbol&#45;&gt;gpio4 -->
<g id="edge5" class="edge">
<title>inv_symbol&#45;&gt;gpio4</title>
<path fill="none" stroke="blue" d="M418,-129.96C418,-117.72 418,-100.76 418,-85.27"/>
<polygon fill="blue" stroke="blue" points="421.5,-85.33 418,-75.33 414.5,-85.33 421.5,-85.33"/>
<text xml:space="preserve" text-anchor="middle" x="432.62" y="-93.75" font-family="Arial" font-size="8.00">Inverted</text>
</g>
<!-- btn1 -->
<g id="node10" class="node">
<title>btn1</title>
<polygon fill="#b3e5fc" stroke="black" points="579,-258.7 525,-258.7 525,-222.7 579,-222.7 579,-258.7"/>
<text xml:space="preserve" text-anchor="middle" x="552" y="-237.4" font-family="Arial" font-size="9.00">BTN1</text>
</g>
<!-- or_gate -->
<g id="node13" class="node">
<title>or_gate</title>
<polygon fill="#ffcdd2" stroke="black" points="588,-166.15 561,-148.15 588,-130.15 615,-148.15 588,-166.15"/>
<text xml:space="preserve" text-anchor="middle" x="588" y="-144.85" font-family="Arial" font-size="9.00">OR</text>
</g>
<!-- btn1&#45;&gt;or_gate -->
<g id="edge6" class="edge">
<title>btn1&#45;&gt;or_gate</title>
<path fill="none" stroke="purple" d="M558.94,-222.24C564.47,-208.35 572.26,-188.74 578.38,-173.34"/>
<polygon fill="purple" stroke="purple" points="581.49,-174.99 581.93,-164.41 574.99,-172.41 581.49,-174.99"/>
</g>
<!-- btn2 -->
<g id="node11" class="node">
<title>btn2</title>
<polygon fill="#b3e5fc" stroke="black" points="651,-258.7 597,-258.7 597,-222.7 651,-222.7 651,-258.7"/>
<text xml:space="preserve" text-anchor="middle" x="624" y="-237.4" font-family="Arial" font-size="9.00">BTN2</text>
</g>
<!-- btn2&#45;&gt;or_gate -->
<g id="edge7" class="edge">
<title>btn2&#45;&gt;or_gate</title>
<path fill="none" stroke="purple" d="M617.06,-222.24C611.53,-208.35 603.74,-188.74 597.62,-173.34"/>
<polygon fill="purple" stroke="purple" points="601.01,-172.41 594.07,-164.41 594.51,-174.99 601.01,-172.41"/>
</g>
<!-- gpio5 -->
<g id="node12" class="node">
<title>gpio5</title>
<ellipse fill="#c8e6c9" stroke="black" cx="588" cy="-44.8" rx="28.8" ry="28.8"/>
<text xml:space="preserve" text-anchor="middle" x="588" y="-41.5" font-family="Arial" font-size="9.00">GPIO5</text>
</g>
<!-- or_gate&#45;&gt;gpio5 -->
<g id="edge8" class="edge">
<title>or_gate&#45;&gt;gpio5</title>
<path fill="none" stroke="purple" d="M588,-129.96C588,-117.72 588,-100.76 588,-85.27"/>
<polygon fill="purple" stroke="purple" points="591.5,-85.33 588,-75.33 584.5,-85.33 591.5,-85.33"/>
<text xml:space="preserve" text-anchor="middle" x="606.38" y="-93.75" font-family="Arial" font-size="8.00">Combined</text>
</g>
<!-- inv1 -->
<!-- inv1&#45;&gt;uart1_tx -->
<!-- inv2 -->
<!-- inv2&#45;&gt;uart2_tx -->
<!-- inv3 -->
<!-- inv3&#45;&gt;pwm_out -->
<!-- inv4 -->
<!-- inv4&#45;&gt;btn1 -->
</g>
</svg>
