<?xml version="1.0" encoding="UTF-8" standalone="no"?>
<!DOCTYPE svg PUBLIC "-//W3C//DTD SVG 1.1//EN"
 "http://www.w3.org/Graphics/SVG/1.1/DTD/svg11.dtd">
<!-- Generated by graphviz version 13.1.2 (20250808.2320)
 -->
<!-- Title: GPIO_Multiplexing Pages: 1 -->
<svg width="1024pt" height="437pt"
 viewBox="0.00 0.00 1024.00 437.00" xmlns="http://www.w3.org/2000/svg" xmlns:xlink="http://www.w3.org/1999/xlink">
<g id="graph0" class="graph" transform="scale(1 1) rotate(0) translate(4 432.75)">
<title>GPIO_Multiplexing</title>
<polygon fill="white" stroke="none" points="-4,4 -4,-432.75 1020.25,-432.75 1020.25,4 -4,4"/>
<text xml:space="preserve" text-anchor="middle" x="508.12" y="-409.55" font-family="Arial Bold" font-size="16.00">ESP32 GPIO: 2&#45;Stage Multiplexing System</text>
<g id="clust1" class="cluster">
<title>cluster_peripherals</title>
<polygon fill="#e8f4fd" stroke="black" points="0,-8 0,-298 120.25,-298 120.25,-8 0,-8"/>
<text xml:space="preserve" text-anchor="middle" x="60.12" y="-282.6" font-family="Arial Bold" font-size="12.00">Peripheral Signals</text>
</g>
<g id="clust4" class="cluster">
<title>cluster_pins</title>
<polygon fill="#e1d5e7" stroke="black" points="725.25,-13 725.25,-394 850.75,-394 850.75,-13 725.25,-13"/>
<text xml:space="preserve" text-anchor="middle" x="788" y="-378.6" font-family="Arial Bold" font-size="12.00">Physical GPIO Pins</text>
</g>
<!-- uart_tx -->
<g id="node1" class="node">
<title>uart_tx</title>
<polygon fill="#ffe082" stroke="black" points="88.62,-268 30.62,-268 30.62,-232 88.62,-232 88.62,-268"/>
<text xml:space="preserve" text-anchor="middle" x="59.62" y="-246.5" font-family="Arial" font-size="10.00">UART TX</text>
</g>
<!-- matrix -->
<g id="node6" class="node">
<title>matrix</title>
<polygon fill="white" stroke="none" points="216.25,-96 216.25,-188 363.75,-188 363.75,-96 216.25,-96"/>
<polygon fill="none" stroke="black" points="217.25,-169 217.25,-187 362.75,-187 362.75,-169 217.25,-169"/>
<text xml:space="preserve" text-anchor="start" x="244.62" y="-175.5" font-family="Arial" font-weight="bold" font-size="10.00">GPIO Matrix Router</text>
<polygon fill="none" stroke="black" points="217.25,-151 217.25,-169 270.5,-169 270.5,-151 217.25,-151"/>
<text xml:space="preserve" text-anchor="start" x="220.25" y="-156.5" font-family="Arial" font-size="10.00">Any Signal</text>
<polygon fill="none" stroke="black" points="270.5,-151 270.5,-169 286.25,-169 286.25,-151 270.5,-151"/>
<text xml:space="preserve" text-anchor="start" x="273.5" y="-156.5" font-family="Arial" font-size="10.00">→</text>
<polygon fill="none" stroke="black" points="286.25,-151 286.25,-169 328.25,-169 328.25,-151 286.25,-151"/>
<text xml:space="preserve" text-anchor="start" x="290" y="-156.5" font-family="Arial" font-size="10.00">Any Pin</text>
<polygon fill="none" stroke="black" points="328.25,-151 328.25,-169 362.75,-169 362.75,-151 328.25,-151"/>
<text xml:space="preserve" text-anchor="start" x="332.38" y="-156.5" font-family="Arial" font-size="10.00">Route</text>
<polygon fill="none" stroke="black" points="217.25,-133 217.25,-151 270.5,-151 270.5,-133 217.25,-133"/>
<text xml:space="preserve" text-anchor="start" x="233" y="-138.5" font-family="Arial" font-size="10.00">Input</text>
<polygon fill="none" stroke="black" points="270.5,-133 270.5,-151 286.25,-151 286.25,-133 270.5,-133"/>
<text xml:space="preserve" text-anchor="start" x="273.5" y="-138.5" font-family="Arial" font-size="10.00">←</text>
<polygon fill="none" stroke="black" points="286.25,-133 286.25,-151 328.25,-151 328.25,-133 286.25,-133"/>
<text xml:space="preserve" text-anchor="start" x="300.12" y="-138.5" font-family="Arial" font-size="10.00">Pin</text>
<polygon fill="none" stroke="black" points="328.25,-133 328.25,-151 362.75,-151 362.75,-133 328.25,-133"/>
<text xml:space="preserve" text-anchor="start" x="332.38" y="-138.5" font-family="Arial" font-size="10.00">Route</text>
<polygon fill="none" stroke="black" points="217.25,-115 217.25,-133 270.5,-133 270.5,-115 217.25,-115"/>
<text xml:space="preserve" text-anchor="start" x="224" y="-120.5" font-family="Arial" font-size="10.00">Inversion</text>
<polygon fill="none" stroke="black" points="270.5,-115 270.5,-133 286.25,-133 286.25,-115 270.5,-115"/>
<text xml:space="preserve" text-anchor="start" x="276.88" y="-120.5" font-family="Arial" font-size="10.00">!</text>
<polygon fill="none" stroke="black" points="286.25,-115 286.25,-133 328.25,-133 328.25,-115 286.25,-115"/>
<text xml:space="preserve" text-anchor="start" x="293.75" y="-120.5" font-family="Arial" font-size="10.00">Signal</text>
<polygon fill="none" stroke="black" points="328.25,-115 328.25,-133 362.75,-133 362.75,-115 328.25,-115"/>
<text xml:space="preserve" text-anchor="start" x="331.25" y="-120.5" font-family="Arial" font-size="10.00">Option</text>
<polygon fill="none" stroke="black" points="217.25,-97 217.25,-115 270.5,-115 270.5,-97 217.25,-97"/>
<text xml:space="preserve" text-anchor="start" x="227" y="-102.5" font-family="Arial" font-size="10.00">Multiple</text>
<polygon fill="none" stroke="black" points="270.5,-97 270.5,-115 286.25,-115 286.25,-97 270.5,-97"/>
<text xml:space="preserve" text-anchor="start" x="275.38" y="-102.5" font-family="Arial" font-size="10.00">×</text>
<polygon fill="none" stroke="black" points="286.25,-97 286.25,-115 328.25,-115 328.25,-97 286.25,-97"/>
<text xml:space="preserve" text-anchor="start" x="289.25" y="-102.5" font-family="Arial" font-size="10.00">Sources</text>
<polygon fill="none" stroke="black" points="328.25,-97 328.25,-115 362.75,-115 362.75,-97 328.25,-97"/>
<text xml:space="preserve" text-anchor="start" x="336.12" y="-102.5" font-family="Arial" font-size="10.00">Mux</text>
<polygon fill="none" stroke="black" points="216.25,-96 216.25,-188 363.75,-188 363.75,-96 216.25,-96"/>
</g>
<!-- uart_tx&#45;&gt;matrix -->
<g id="edge1" class="edge">
<title>uart_tx&#45;&gt;matrix</title>
<path fill="none" stroke="blue" stroke-width="2" d="M88.89,-237.36C98.83,-232.87 110.05,-227.75 120.25,-223 145.17,-211.38 172.04,-198.59 196.87,-186.68"/>
<polygon fill="blue" stroke="blue" stroke-width="2" points="198.26,-189.89 205.76,-182.41 195.23,-183.58 198.26,-189.89"/>
<text xml:space="preserve" text-anchor="middle" x="160.25" y="-229.02" font-family="Arial" font-size="9.00">Any peripheral</text>
<text xml:space="preserve" text-anchor="middle" x="160.25" y="-218.52" font-family="Arial" font-size="9.00">to any pin</text>
</g>
<!-- spi_clk -->
<g id="node2" class="node">
<title>spi_clk</title>
<polygon fill="#ffe082" stroke="black" points="87.12,-214 32.12,-214 32.12,-178 87.12,-178 87.12,-214"/>
<text xml:space="preserve" text-anchor="middle" x="59.62" y="-192.5" font-family="Arial" font-size="10.00">SPI CLK</text>
</g>
<!-- spi_clk&#45;&gt;matrix -->
<!-- i2c_sda -->
<g id="node3" class="node">
<title>i2c_sda</title>
<polygon fill="#ffe082" stroke="black" points="87.5,-160 31.75,-160 31.75,-124 87.5,-124 87.5,-160"/>
<text xml:space="preserve" text-anchor="middle" x="59.62" y="-138.5" font-family="Arial" font-size="10.00">I2C SDA</text>
</g>
<!-- i2c_sda&#45;&gt;matrix -->
<!-- pwm_out -->
<g id="node4" class="node">
<title>pwm_out</title>
<polygon fill="#ffe082" stroke="black" points="92,-106 27.25,-106 27.25,-70 92,-70 92,-106"/>
<text xml:space="preserve" text-anchor="middle" x="59.62" y="-84.5" font-family="Arial" font-size="10.00">PWM OUT</text>
</g>
<!-- pwm_out&#45;&gt;matrix -->
<!-- adc_in -->
<g id="node5" class="node">
<title>adc_in</title>
<polygon fill="#ffe082" stroke="black" points="86.62,-52 32.62,-52 32.62,-16 86.62,-16 86.62,-52"/>
<text xml:space="preserve" text-anchor="middle" x="59.62" y="-30.5" font-family="Arial" font-size="10.00">ADC IN</text>
</g>
<!-- adc_in&#45;&gt;matrix -->
<!-- iomux -->
<g id="node7" class="node">
<title>iomux</title>
<polygon fill="white" stroke="none" points="476.5,-96 476.5,-188 636,-188 636,-96 476.5,-96"/>
<polygon fill="none" stroke="black" points="477.5,-169 477.5,-187 635,-187 635,-169 477.5,-169"/>
<text xml:space="preserve" text-anchor="start" x="513.12" y="-175.5" font-family="Arial" font-weight="bold" font-size="10.00">IO MUX Controller</text>
<polygon fill="none" stroke="black" points="477.5,-151 477.5,-169 546.5,-169 546.5,-151 477.5,-151"/>
<text xml:space="preserve" text-anchor="start" x="493.25" y="-156.5" font-family="Arial" font-size="10.00">Function</text>
<polygon fill="none" stroke="black" points="546.5,-151 546.5,-169 592.25,-169 592.25,-151 546.5,-151"/>
<text xml:space="preserve" text-anchor="start" x="549.5" y="-156.5" font-family="Arial" font-size="10.00">GPIO/Alt</text>
<polygon fill="none" stroke="black" points="592.25,-151 592.25,-169 635,-169 635,-151 592.25,-151"/>
<text xml:space="preserve" text-anchor="start" x="599.75" y="-156.5" font-family="Arial" font-size="10.00">Select</text>
<polygon fill="none" stroke="black" points="477.5,-133 477.5,-151 546.5,-151 546.5,-133 477.5,-133"/>
<text xml:space="preserve" text-anchor="start" x="483.88" y="-138.5" font-family="Arial" font-size="10.00">Pull&#45;up/down</text>
<polygon fill="none" stroke="black" points="546.5,-133 546.5,-151 592.25,-151 592.25,-133 546.5,-133"/>
<text xml:space="preserve" text-anchor="start" x="554.38" y="-138.5" font-family="Arial" font-size="10.00">Enable</text>
<polygon fill="none" stroke="black" points="592.25,-133 592.25,-151 635,-151 635,-133 592.25,-133"/>
<text xml:space="preserve" text-anchor="start" x="595.25" y="-138.5" font-family="Arial" font-size="10.00">Resistor</text>
<polygon fill="none" stroke="black" points="477.5,-115 477.5,-133 546.5,-133 546.5,-115 477.5,-115"/>
<text xml:space="preserve" text-anchor="start" x="480.5" y="-120.5" font-family="Arial" font-size="10.00">Drive Strength</text>
<polygon fill="none" stroke="black" points="546.5,-115 546.5,-133 592.25,-133 592.25,-115 546.5,-115"/>
<text xml:space="preserve" text-anchor="start" x="552.5" y="-120.5" font-family="Arial" font-size="10.00">5&#45;40mA</text>
<polygon fill="none" stroke="black" points="592.25,-115 592.25,-133 635,-133 635,-115 592.25,-115"/>
<text xml:space="preserve" text-anchor="start" x="597.5" y="-120.5" font-family="Arial" font-size="10.00">Current</text>
<polygon fill="none" stroke="black" points="477.5,-97 477.5,-115 546.5,-115 546.5,-97 477.5,-97"/>
<text xml:space="preserve" text-anchor="start" x="486.12" y="-102.5" font-family="Arial" font-size="10.00">Sleep Mode</text>
<polygon fill="none" stroke="black" points="546.5,-97 546.5,-115 592.25,-115 592.25,-97 546.5,-97"/>
<text xml:space="preserve" text-anchor="start" x="550.25" y="-102.5" font-family="Arial" font-size="10.00">Behavior</text>
<polygon fill="none" stroke="black" points="592.25,-97 592.25,-115 635,-115 635,-97 592.25,-97"/>
<text xml:space="preserve" text-anchor="start" x="597.88" y="-102.5" font-family="Arial" font-size="10.00">Control</text>
<polygon fill="none" stroke="black" points="476.5,-96 476.5,-188 636,-188 636,-96 476.5,-96"/>
</g>
<!-- matrix&#45;&gt;iomux -->
<g id="edge6" class="edge">
<title>matrix&#45;&gt;iomux</title>
<path fill="none" stroke="green" stroke-width="2" d="M371.72,-142C398.19,-142 427.92,-142 455.61,-142"/>
<polygon fill="green" stroke="green" stroke-width="2" points="455.57,-145.5 465.57,-142 455.57,-138.5 455.57,-145.5"/>
<text xml:space="preserve" text-anchor="middle" x="420.12" y="-154.45" font-family="Arial" font-size="9.00">Signal routing</text>
<text xml:space="preserve" text-anchor="middle" x="420.12" y="-143.95" font-family="Arial" font-size="9.00">+ configuration</text>
</g>
<!-- gpio0 -->
<g id="node8" class="node">
<title>gpio0</title>
<ellipse fill="#c8e6c9" stroke="black" cx="787.5" cy="-281" rx="29.47" ry="29.47"/>
<text xml:space="preserve" text-anchor="middle" x="787.5" y="-277.5" font-family="Arial" font-size="10.00">GPIO 0</text>
</g>
<!-- iomux&#45;&gt;gpio0 -->
<g id="edge7" class="edge">
<title>iomux&#45;&gt;gpio0</title>
<path fill="none" stroke="orange" stroke-width="2" d="M639.69,-191.99C677.77,-215.07 721,-241.29 750.63,-259.25"/>
<polygon fill="orange" stroke="orange" stroke-width="2" points="748.72,-262.19 759.08,-264.38 752.35,-256.2 748.72,-262.19"/>
<text xml:space="preserve" text-anchor="middle" x="688.62" y="-248.49" font-family="Arial" font-size="9.00">Physical pin</text>
<text xml:space="preserve" text-anchor="middle" x="688.62" y="-237.99" font-family="Arial" font-size="9.00">configuration</text>
</g>
<!-- gpio2 -->
<g id="node9" class="node">
<title>gpio2</title>
<ellipse fill="#c8e6c9" stroke="black" cx="787.5" cy="-204" rx="29.47" ry="29.47"/>
<text xml:space="preserve" text-anchor="middle" x="787.5" y="-200.5" font-family="Arial" font-size="10.00">GPIO 2</text>
</g>
<!-- iomux&#45;&gt;gpio2 -->
<!-- gpio4 -->
<g id="node10" class="node">
<title>gpio4</title>
<ellipse fill="#c8e6c9" stroke="black" cx="787.5" cy="-127" rx="29.47" ry="29.47"/>
<text xml:space="preserve" text-anchor="middle" x="787.5" y="-123.5" font-family="Arial" font-size="10.00">GPIO 4</text>
</g>
<!-- iomux&#45;&gt;gpio4 -->
<!-- gpio5 -->
<g id="node11" class="node">
<title>gpio5</title>
<ellipse fill="#c8e6c9" stroke="black" cx="787.5" cy="-50" rx="29.47" ry="29.47"/>
<text xml:space="preserve" text-anchor="middle" x="787.5" y="-46.5" font-family="Arial" font-size="10.00">GPIO 5</text>
</g>
<!-- iomux&#45;&gt;gpio5 -->
<!-- external -->
<g id="node13" class="node">
<title>external</title>
<polygon fill="#ffcdd2" stroke="none" points="924.25,-201 924.25,-219 1008.25,-219 1008.25,-201 924.25,-201"/>
<polygon fill="none" stroke="black" points="924.25,-201 924.25,-219 1008.25,-219 1008.25,-201 924.25,-201"/>
<text xml:space="preserve" text-anchor="start" x="927.25" y="-207.5" font-family="Arial" font-weight="bold" font-size="10.00">External Devices</text>
<polygon fill="none" stroke="black" points="924.25,-183 924.25,-201 1008.25,-201 1008.25,-183 924.25,-183"/>
<text xml:space="preserve" text-anchor="start" x="945.62" y="-188.5" font-family="Arial" font-size="10.00">💡 LEDs</text>
<polygon fill="none" stroke="black" points="924.25,-165 924.25,-183 1008.25,-183 1008.25,-165 924.25,-165"/>
<text xml:space="preserve" text-anchor="start" x="941.12" y="-170.5" font-family="Arial" font-size="10.00">🔘 Buttons</text>
<polygon fill="none" stroke="black" points="924.25,-147 924.25,-165 1008.25,-165 1008.25,-147 924.25,-147"/>
<text xml:space="preserve" text-anchor="start" x="940" y="-152.5" font-family="Arial" font-size="10.00">📡 Sensors</text>
<polygon fill="none" stroke="black" points="924.25,-129 924.25,-147 1008.25,-147 1008.25,-129 924.25,-129"/>
<text xml:space="preserve" text-anchor="start" x="938.88" y="-134.5" font-family="Arial" font-size="10.00">🖥️ Displays</text>
<polygon fill="none" stroke="black" points="924.25,-111 924.25,-129 1008.25,-129 1008.25,-111 924.25,-111"/>
<text xml:space="preserve" text-anchor="start" x="939.62" y="-116.5" font-family="Arial" font-size="10.00">📱 Modules</text>
</g>
<!-- gpio0&#45;&gt;external -->
<!-- gpio2&#45;&gt;external -->
<g id="edge12" class="edge">
<title>gpio2&#45;&gt;external</title>
<path fill="none" stroke="red" stroke-width="2" d="M816.51,-197.82C839.93,-192.65 874.19,-185.09 903.93,-178.53"/>
<polygon fill="red" stroke="red" stroke-width="2" points="904.38,-182.01 913.39,-176.44 902.87,-175.18 904.38,-182.01"/>
<text xml:space="preserve" text-anchor="middle" x="879.5" y="-200.44" font-family="Arial" font-size="9.00">Electrical</text>
<text xml:space="preserve" text-anchor="middle" x="879.5" y="-189.94" font-family="Arial" font-size="9.00">interface</text>
</g>
<!-- gpio4&#45;&gt;external -->
<!-- gpio5&#45;&gt;external -->
<!-- gpio_etc -->
<g id="node12" class="node">
<title>gpio_etc</title>
<text xml:space="preserve" text-anchor="middle" x="787.5" y="-342.5" font-family="Arial" font-size="10.00">...</text>
</g>
<!-- flexibility1 -->
<g id="node14" class="node">
<title>flexibility1</title>
<text xml:space="preserve" text-anchor="middle" x="290" y="-230.5" font-family="Arial" font-size="10.00" fill="blue">✨ Flexibility:</text>
<text xml:space="preserve" text-anchor="middle" x="290" y="-218.5" font-family="Arial" font-size="10.00" fill="blue">Any signal → Any pin</text>
</g>
<!-- flexibility2 -->
<g id="node15" class="node">
<title>flexibility2</title>
<text xml:space="preserve" text-anchor="middle" x="556.25" y="-230.5" font-family="Arial" font-size="10.00" fill="green">🔧 Configuration:</text>
<text xml:space="preserve" text-anchor="middle" x="556.25" y="-218.5" font-family="Arial" font-size="10.00" fill="green">Electrical properties</text>
</g>
</g>
</svg>
