<?xml version="1.0" encoding="UTF-8" standalone="no"?>
<!DOCTYPE svg PUBLIC "-//W3C//DTD SVG 1.1//EN"
 "http://www.w3.org/Graphics/SVG/1.1/DTD/svg11.dtd">
<!-- Generated by graphviz version 2.38.0 (20140413.2041)
 -->
<!-- Title: LED_Circuit Pages: 1 -->
<svg width="426pt" height="159pt"
 viewBox="0.00 0.00 426.00 159.00" xmlns="http://www.w3.org/2000/svg" xmlns:xlink="http://www.w3.org/1999/xlink">
<g id="graph0" class="graph" transform="scale(1 1) rotate(0) translate(4 155)">
<title>LED_Circuit</title>
<polygon fill="white" stroke="none" points="-4,4 -4,-155 422,-155 422,4 -4,4"/>
<text text-anchor="middle" x="209" y="-135.8" font-family="Arial Bold" font-size="14.00">ESP32 GPIO + LED Circuit</text>
<!-- gpio2 -->
<g id="node1" class="node"><title>gpio2</title>
<polygon fill="#fff2cc" stroke="black" points="54,-71 0,-71 0,-35 54,-35 54,-71"/>
<text text-anchor="middle" x="27" y="-56" font-family="Arial" font-size="10.00">GPIO 2</text>
<text text-anchor="middle" x="27" y="-45" font-family="Arial" font-size="10.00">3.3V</text>
</g>
<!-- resistor -->
<g id="node4" class="node"><title>resistor</title>
<polygon fill="#ffffcc" stroke="none" points="131,-53 131,-70 161,-70 161,-53 131,-53"/>
<polygon fill="none" stroke="black" points="131,-53 131,-70 161,-70 161,-53 131,-53"/>
<text text-anchor="start" x="134" y="-59" font-family="Arial" font-size="10.00">470Ω</text>
<polygon fill="#ffff99" stroke="none" points="131,-36 131,-53 161,-53 161,-36 131,-36"/>
<polygon fill="none" stroke="black" points="131,-36 131,-53 161,-53 161,-36 131,-36"/>
<text text-anchor="start" x="136" y="-42" font-family="Arial" font-size="10.00">RES</text>
</g>
<!-- gpio2&#45;&gt;resistor -->
<g id="edge1" class="edge"><title>gpio2&#45;&gt;resistor</title>
<path fill="none" stroke="red" stroke-width="2" d="M54.2571,-53C70.2142,-53 90.8259,-53 108.371,-53"/>
<polygon fill="red" stroke="red" stroke-width="2" points="108.831,-56.5001 118.831,-53 108.831,-49.5001 108.831,-56.5001"/>
<text text-anchor="middle" x="86.5" y="-65.8" font-family="Arial" font-size="9.00">Current</text>
<text text-anchor="middle" x="86.5" y="-55.8" font-family="Arial" font-size="9.00">Limit</text>
</g>
<!-- gnd -->
<g id="node2" class="node"><title>gnd</title>
<polygon fill="#d5e8d4" stroke="black" points="418,-36 364,-36 364,-0 418,-0 418,-36"/>
<text text-anchor="middle" x="391" y="-21" font-family="Arial" font-size="10.00">GND</text>
<text text-anchor="middle" x="391" y="-10" font-family="Arial" font-size="10.00">0V</text>
</g>
<!-- led -->
<g id="node3" class="node"><title>led</title>
<polygon fill="#ffe6e6" stroke="none" points="263,-44 263,-61 288,-61 288,-44 263,-44"/>
<polygon fill="none" stroke="black" points="263,-44 263,-61 288,-61 288,-44 263,-44"/>
<text text-anchor="start" x="272" y="-50" font-family="Arial" font-size="10.00">+</text>
<polygon fill="#ff9999" stroke="none" points="263,-27 263,-44 288,-44 288,-27 263,-27"/>
<polygon fill="none" stroke="black" points="263,-27 263,-44 288,-44 288,-27 263,-27"/>
<text text-anchor="start" x="266" y="-33" font-family="Arial" font-size="10.00">LED</text>
<polygon fill="#ffe6e6" stroke="none" points="263,-10 263,-27 288,-27 288,-10 263,-10"/>
<polygon fill="none" stroke="black" points="263,-10 263,-27 288,-27 288,-10 263,-10"/>
<text text-anchor="start" x="273.5" y="-16" font-family="Arial" font-size="10.00">&#45;</text>
</g>
<!-- led&#45;&gt;gnd -->
<g id="edge3" class="edge"><title>led:cathode&#45;&gt;gnd</title>
<path fill="none" stroke="blue" stroke-width="2" d="M289,-18C310.453,-18 334.468,-18 353.698,-18"/>
<polygon fill="blue" stroke="blue" stroke-width="2" points="353.842,-21.5001 363.842,-18 353.842,-14.5001 353.842,-21.5001"/>
<text text-anchor="middle" x="333" y="-30.8" font-family="Arial" font-size="9.00">Return</text>
<text text-anchor="middle" x="333" y="-20.8" font-family="Arial" font-size="9.00">Path</text>
</g>
<!-- resistor&#45;&gt;led -->
<g id="edge2" class="edge"><title>resistor&#45;&gt;led:anode</title>
<path fill="none" stroke="red" stroke-width="2" d="M173.034,-53C193.793,-53 223.914,-53 251.834,-53"/>
<polygon fill="red" stroke="red" stroke-width="2" points="252,-56.5001 262,-53 252,-49.5001 252,-56.5001"/>
<text text-anchor="middle" x="210.5" y="-55.8" font-family="Arial" font-size="9.00">I = 3.4mA</text>
</g>
<!-- v1 -->
<g id="node5" class="node"><title>v1</title>
<text text-anchor="middle" x="27" y="-104.5" font-family="Arial" font-size="10.00" fill="red">3.3V</text>
</g>
<!-- v2 -->
<g id="node6" class="node"><title>v2</title>
<text text-anchor="middle" x="146" y="-107.5" font-family="Arial" font-size="10.00" fill="orange">1.6V</text>
</g>
<!-- v3 -->
<g id="node7" class="node"><title>v3</title>
<text text-anchor="middle" x="275" y="-99.5" font-family="Arial" font-size="10.00" fill="green">1.7V</text>
</g>
<!-- v4 -->
<g id="node8" class="node"><title>v4</title>
<text text-anchor="middle" x="391" y="-69.5" font-family="Arial" font-size="10.00" fill="blue">0V</text>
</g>
</g>
</svg>
