<?xml version="1.0" encoding="UTF-8" standalone="no"?>
<!DOCTYPE svg PUBLIC "-//W3C//DTD SVG 1.1//EN"
 "http://www.w3.org/Graphics/SVG/1.1/DTD/svg11.dtd">
<!-- Generated by graphviz version 13.1.2 (20250808.2320)
 -->
<!-- Title: LED_Circuit Pages: 1 -->
<svg width="309pt" height="237pt"
 viewBox="0.00 0.00 309.00 237.00" xmlns="http://www.w3.org/2000/svg" xmlns:xlink="http://www.w3.org/1999/xlink">
<g id="graph0" class="graph" transform="scale(1 1) rotate(0) translate(4 232.75)">
<title>LED_Circuit</title>
<polygon fill="white" stroke="none" points="-4,4 -4,-232.75 304.75,-232.75 304.75,4 -4,4"/>
<text xml:space="preserve" text-anchor="middle" x="150.38" y="-211.45" font-family="Arial Bold" font-size="14.00">ESP32 GPIO + LED Circuit</text>
<!-- gpio2 -->
<g id="node1" class="node">
<title>gpio2</title>
<polygon fill="#fff2cc" stroke="black" points="54,-97 0,-97 0,-61 54,-61 54,-97"/>
<text xml:space="preserve" text-anchor="middle" x="27" y="-81.5" font-family="Arial" font-size="10.00">GPIO 2</text>
<text xml:space="preserve" text-anchor="middle" x="27" y="-69.5" font-family="Arial" font-size="10.00">3.3V</text>
</g>
<!-- resistor -->
<g id="node4" class="node">
<title>resistor</title>
<polygon fill="#ffffcc" stroke="none" points="133.12,-79 133.12,-97 162.38,-97 162.38,-79 133.12,-79"/>
<polygon fill="none" stroke="black" points="133.12,-79 133.12,-97 162.38,-97 162.38,-79 133.12,-79"/>
<text xml:space="preserve" text-anchor="start" x="136.12" y="-84.5" font-family="Arial" font-size="10.00">330Ω</text>
<polygon fill="#ffff99" stroke="none" points="133.12,-61 133.12,-79 162.38,-79 162.38,-61 133.12,-61"/>
<polygon fill="none" stroke="black" points="133.12,-61 133.12,-79 162.38,-79 162.38,-61 133.12,-61"/>
<text xml:space="preserve" text-anchor="start" x="137.25" y="-66.5" font-family="Arial" font-size="10.00">RES</text>
</g>
<!-- gpio2&#45;&gt;resistor -->
<g id="edge1" class="edge">
<title>gpio2&#45;&gt;resistor</title>
<path fill="none" stroke="red" stroke-width="2" d="M54.35,-79C70.14,-79 90.5,-79 108.09,-79"/>
<polygon fill="red" stroke="red" stroke-width="2" points="107.85,-82.5 117.85,-79 107.85,-75.5 107.85,-82.5"/>
<text xml:space="preserve" text-anchor="middle" x="87.38" y="-91.45" font-family="Arial" font-size="9.00">Current</text>
<text xml:space="preserve" text-anchor="middle" x="87.38" y="-80.95" font-family="Arial" font-size="9.00">Limit</text>
</g>
<!-- gnd -->
<g id="node2" class="node">
<title>gnd</title>
<polygon fill="#d5e8d4" stroke="black" points="54,-36 0,-36 0,0 54,0 54,-36"/>
<text xml:space="preserve" text-anchor="middle" x="27" y="-20.5" font-family="Arial" font-size="10.00">GND</text>
<text xml:space="preserve" text-anchor="middle" x="27" y="-8.5" font-family="Arial" font-size="10.00">0V</text>
</g>
<!-- led -->
<g id="node3" class="node">
<title>led</title>
<polygon fill="#ffe6e6" stroke="none" points="261,-57 261,-75 286.5,-75 286.5,-57 261,-57"/>
<polygon fill="none" stroke="black" points="261,-57 261,-75 286.5,-75 286.5,-57 261,-57"/>
<text xml:space="preserve" text-anchor="start" x="270.75" y="-62.5" font-family="Arial" font-size="10.00">+</text>
<polygon fill="#ff9999" stroke="none" points="261,-39 261,-57 286.5,-57 286.5,-39 261,-39"/>
<polygon fill="none" stroke="black" points="261,-39 261,-57 286.5,-57 286.5,-39 261,-39"/>
<text xml:space="preserve" text-anchor="start" x="264" y="-44.5" font-family="Arial" font-size="10.00">LED</text>
<polygon fill="#ffe6e6" stroke="none" points="261,-21 261,-39 286.5,-39 286.5,-21 261,-21"/>
<polygon fill="none" stroke="black" points="261,-21 261,-39 286.5,-39 286.5,-21 261,-21"/>
<text xml:space="preserve" text-anchor="start" x="272.25" y="-26.5" font-family="Arial" font-size="10.00">&#45;</text>
</g>
<!-- led&#45;&gt;gnd -->
<g id="edge3" class="edge">
<title>led:cathode&#45;&gt;gnd</title>
<path fill="none" stroke="blue" stroke-width="2" d="M260,-30C223.58,-30 123.07,-24.03 67.04,-20.51"/>
<polygon fill="blue" stroke="blue" stroke-width="2" points="67.36,-17.02 57.16,-19.88 66.92,-24.01 67.36,-17.02"/>
<text xml:space="preserve" text-anchor="middle" x="147.75" y="-39.16" font-family="Arial" font-size="9.00">Return</text>
<text xml:space="preserve" text-anchor="middle" x="147.75" y="-28.66" font-family="Arial" font-size="9.00">Path</text>
</g>
<!-- resistor&#45;&gt;led -->
<g id="edge2" class="edge">
<title>resistor&#45;&gt;led:anode</title>
<path fill="none" stroke="red" stroke-width="2" d="M174.72,-74.23C193.96,-71.06 221.2,-67.29 247.06,-66.27"/>
<polygon fill="red" stroke="red" stroke-width="2" points="247.05,-69.77 256.97,-66.06 246.9,-62.77 247.05,-69.77"/>
<text xml:space="preserve" text-anchor="middle" x="210.75" y="-73.29" font-family="Arial" font-size="9.00">I = 10mA</text>
</g>
<!-- v1 -->
<g id="node5" class="node">
<title>v1</title>
<text xml:space="preserve" text-anchor="middle" x="27" y="-129.5" font-family="Arial" font-size="10.00" fill="red">3.3V</text>
</g>
<!-- v2 -->
<g id="node6" class="node">
<title>v2</title>
<text xml:space="preserve" text-anchor="middle" x="147.75" y="-133.5" font-family="Arial" font-size="10.00" fill="orange">2.0V</text>
</g>
<!-- v3 -->
<g id="node7" class="node">
<title>v3</title>
<text xml:space="preserve" text-anchor="middle" x="273.75" y="-111.5" font-family="Arial" font-size="10.00" fill="green">1.3V</text>
</g>
<!-- v4 -->
<g id="node8" class="node">
<title>v4</title>
<text xml:space="preserve" text-anchor="middle" x="27" y="-183.5" font-family="Arial" font-size="10.00" fill="blue">0V</text>
</g>
</g>
</svg>
