<?xml version="1.0" encoding="UTF-8" standalone="no"?>
<!DOCTYPE svg PUBLIC "-//W3C//DTD SVG 1.1//EN"
 "http://www.w3.org/Graphics/SVG/1.1/DTD/svg11.dtd">
<!-- Generated by graphviz version 13.1.2 (20250808.2320)
 -->
<!-- Title: Physical_to_Digital Pages: 1 -->
<svg width="648pt" height="410pt"
 viewBox="0.00 0.00 648.00 410.00" xmlns="http://www.w3.org/2000/svg" xmlns:xlink="http://www.w3.org/1999/xlink">
<g id="graph0" class="graph" transform="scale(1 1) rotate(0) translate(4 405.75)">
<title>Physical_to_Digital</title>
<polygon fill="white" stroke="none" points="-4,4 -4,-405.75 643.5,-405.75 643.5,4 -4,4"/>
<text xml:space="preserve" text-anchor="middle" x="319.75" y="-382.55" font-family="Arial Bold" font-size="16.00">Microcontroller: Bridge from Physical to Digital Domain</text>
<g id="clust1" class="cluster">
<title>cluster_physical</title>
<polygon fill="white" stroke="blue" stroke-dasharray="5,2" points="0,-8 0,-367 117.25,-367 117.25,-8 0,-8"/>
<text xml:space="preserve" text-anchor="middle" x="58.62" y="-351.6" font-family="Arial Bold" font-size="12.00">Physical Domain</text>
<text xml:space="preserve" text-anchor="middle" x="58.62" y="-337.35" font-family="Arial Bold" font-size="12.00">(Energy domains)</text>
</g>
<g id="clust3" class="cluster">
<title>cluster_electrical</title>
<polygon fill="white" stroke="orange" stroke-dasharray="5,2" points="301,-139 301,-221 415.25,-221 415.25,-139 301,-139"/>
<text xml:space="preserve" text-anchor="middle" x="358.12" y="-205.6" font-family="Arial Bold" font-size="12.00">Electrical System</text>
</g>
<g id="clust4" class="cluster">
<title>cluster_digital</title>
<polygon fill="white" stroke="purple" stroke-dasharray="5,2" points="435.25,-143 435.25,-217 591.75,-217 591.75,-143 435.25,-143"/>
<text xml:space="preserve" text-anchor="middle" x="513.5" y="-201.6" font-family="Arial Bold" font-size="12.00">Digital Domain</text>
</g>
<!-- radiant -->
<g id="node1" class="node">
<title>radiant</title>
<polygon fill="#e0e0e0" stroke="black" points="85.12,-52 31.12,-52 31.12,-16 85.12,-16 85.12,-52"/>
<text xml:space="preserve" text-anchor="middle" x="58.12" y="-30.5" font-family="Arial" font-size="10.00">Radiant</text>
</g>
<!-- electrical_sensor -->
<g id="node7" class="node">
<title>electrical_sensor</title>
<ellipse fill="#b3d9ff" stroke="black" cx="209.12" cy="-169" rx="39.95" ry="22.63"/>
<text xml:space="preserve" text-anchor="middle" x="209.12" y="-171.5" font-family="Arial" font-size="10.00">Electrical</text>
<text xml:space="preserve" text-anchor="middle" x="209.12" y="-159.5" font-family="Arial" font-size="10.00">energy</text>
</g>
<!-- radiant&#45;&gt;electrical_sensor -->
<g id="edge1" class="edge">
<title>radiant&#45;&gt;electrical_sensor</title>
<path fill="none" stroke="black" stroke-width="2" d="M85.37,-43.32C95.87,-47.75 107.71,-53.7 117.25,-61 145.14,-82.34 170.28,-113.63 187.01,-137.04"/>
<polygon fill="black" stroke="black" stroke-width="2" points="183.98,-138.82 192.57,-145.02 189.73,-134.82 183.98,-138.82"/>
</g>
<!-- mechanical -->
<g id="node2" class="node">
<title>mechanical</title>
<polygon fill="#e0e0e0" stroke="black" points="90.88,-106 25.38,-106 25.38,-70 90.88,-70 90.88,-106"/>
<text xml:space="preserve" text-anchor="middle" x="58.12" y="-84.5" font-family="Arial" font-size="10.00">Mechanical</text>
</g>
<!-- mechanical&#45;&gt;electrical_sensor -->
<g id="edge2" class="edge">
<title>mechanical&#45;&gt;electrical_sensor</title>
<path fill="none" stroke="black" stroke-width="2" d="M91.08,-102.14C99.67,-106.13 108.89,-110.59 117.25,-115 135.19,-124.46 154.57,-135.82 170.81,-145.67"/>
<polygon fill="black" stroke="black" stroke-width="2" points="168.55,-148.39 178.91,-150.63 172.21,-142.42 168.55,-148.39"/>
</g>
<!-- thermal -->
<g id="node3" class="node">
<title>thermal</title>
<polygon fill="#e0e0e0" stroke="black" points="85.12,-160 31.12,-160 31.12,-124 85.12,-124 85.12,-160"/>
<text xml:space="preserve" text-anchor="middle" x="58.12" y="-138.5" font-family="Arial" font-size="10.00">Thermal</text>
</g>
<!-- thermal&#45;&gt;electrical_sensor -->
<g id="edge3" class="edge">
<title>thermal&#45;&gt;electrical_sensor</title>
<path fill="none" stroke="black" stroke-width="2" d="M85.42,-146.76C105.46,-150.4 133.66,-155.51 157.97,-159.91"/>
<polygon fill="black" stroke="black" stroke-width="2" points="157.19,-163.33 167.65,-161.67 158.44,-156.44 157.19,-163.33"/>
</g>
<!-- electrical_energy -->
<g id="node4" class="node">
<title>electrical_energy</title>
<polygon fill="#e0e0e0" stroke="black" points="86.38,-214 29.88,-214 29.88,-178 86.38,-178 86.38,-214"/>
<text xml:space="preserve" text-anchor="middle" x="58.12" y="-192.5" font-family="Arial" font-size="10.00">Electrical</text>
</g>
<!-- electrical_energy&#45;&gt;electrical_sensor -->
<g id="edge4" class="edge">
<title>electrical_energy&#45;&gt;electrical_sensor</title>
<path fill="none" stroke="black" stroke-width="2" d="M86.8,-190.98C106.68,-187.38 134.05,-182.42 157.76,-178.13"/>
<polygon fill="black" stroke="black" stroke-width="2" points="158.29,-181.59 167.51,-176.36 157.04,-174.7 158.29,-181.59"/>
</g>
<!-- magnetic -->
<g id="node5" class="node">
<title>magnetic</title>
<polygon fill="#e0e0e0" stroke="black" points="86,-268 30.25,-268 30.25,-232 86,-232 86,-268"/>
<text xml:space="preserve" text-anchor="middle" x="58.12" y="-246.5" font-family="Arial" font-size="10.00">Magnetic</text>
</g>
<!-- magnetic&#45;&gt;electrical_sensor -->
<g id="edge5" class="edge">
<title>magnetic&#45;&gt;electrical_sensor</title>
<path fill="none" stroke="black" stroke-width="2" d="M86.42,-238.89C96.38,-234.43 107.58,-228.94 117.25,-223 130.74,-214.72 131.91,-209.52 145.25,-201 151.73,-196.86 158.81,-192.83 165.81,-189.1"/>
<polygon fill="black" stroke="black" stroke-width="2" points="167.41,-192.21 174.71,-184.52 164.21,-185.99 167.41,-192.21"/>
</g>
<!-- chemical -->
<g id="node6" class="node">
<title>chemical</title>
<polygon fill="#e0e0e0" stroke="black" points="86.75,-322 29.5,-322 29.5,-286 86.75,-286 86.75,-322"/>
<text xml:space="preserve" text-anchor="middle" x="58.12" y="-300.5" font-family="Arial" font-size="10.00">Chemical</text>
</g>
<!-- chemical&#45;&gt;electrical_sensor -->
<g id="edge6" class="edge">
<title>chemical&#45;&gt;electrical_sensor</title>
<path fill="none" stroke="black" stroke-width="2" d="M87.08,-296.11C97.71,-291.91 109.18,-285.76 117.25,-277 141.64,-250.53 121.34,-227.91 145.25,-201 150.25,-195.37 156.48,-190.6 163.06,-186.6"/>
<polygon fill="black" stroke="black" stroke-width="2" points="164.47,-189.81 171.63,-182 161.16,-183.64 164.47,-189.81"/>
</g>
<!-- signal_conversion -->
<g id="node8" class="node">
<title>signal_conversion</title>
<polygon fill="#ffe082" stroke="black" points="405.38,-191 309.88,-191 309.88,-147 405.38,-147 405.38,-191"/>
<text xml:space="preserve" text-anchor="middle" x="357.62" y="-177.5" font-family="Arial" font-size="10.00">Signal Conversion</text>
<text xml:space="preserve" text-anchor="middle" x="357.62" y="-153.5" font-family="Arial" font-size="10.00">ADC, DAC</text>
</g>
<!-- electrical_sensor&#45;&gt;signal_conversion -->
<g id="edge7" class="edge">
<title>electrical_sensor&#45;&gt;signal_conversion</title>
<path fill="none" stroke="blue" stroke-width="3" d="M249.38,-169C263.39,-169 279.52,-169 294.95,-169"/>
<polygon fill="blue" stroke="blue" stroke-width="3" points="294.89,-172.5 304.89,-169 294.89,-165.5 294.89,-172.5"/>
</g>
<!-- digital_processing -->
<g id="node9" class="node">
<title>digital_processing</title>
<polygon fill="#e1bee7" stroke="black" points="508,-187 443.25,-187 443.25,-151 508,-151 508,-187"/>
<text xml:space="preserve" text-anchor="middle" x="475.62" y="-171.5" font-family="Arial" font-size="10.00">Digital</text>
<text xml:space="preserve" text-anchor="middle" x="475.62" y="-159.5" font-family="Arial" font-size="10.00">Processing</text>
</g>
<!-- signal_conversion&#45;&gt;digital_processing -->
<g id="edge8" class="edge">
<title>signal_conversion&#45;&gt;digital_processing</title>
<path fill="none" stroke="blue" stroke-width="3" d="M405.81,-169C413.35,-169 421.15,-169 428.67,-169"/>
<polygon fill="blue" stroke="blue" stroke-width="3" points="428.54,-172.5 438.54,-169 428.54,-165.5 428.54,-172.5"/>
</g>
<!-- internet -->
<g id="node10" class="node">
<title>internet</title>
<polygon fill="#c8e6c9" stroke="black" points="627.12,-133 556.38,-133 556.38,-97 627.12,-97 627.12,-133"/>
<text xml:space="preserve" text-anchor="middle" x="591.75" y="-117.5" font-family="Arial" font-size="10.00">Internet</text>
<text xml:space="preserve" text-anchor="middle" x="591.75" y="-105.5" font-family="Arial" font-size="10.00">Connectivity</text>
</g>
<!-- digital_processing&#45;&gt;internet -->
<g id="edge9" class="edge">
<title>digital_processing&#45;&gt;internet</title>
<path fill="none" stroke="green" stroke-width="2" d="M508.42,-153.96C519.5,-148.72 532.17,-142.72 544.2,-137.03"/>
<polygon fill="green" stroke="green" stroke-width="2" points="545.65,-140.21 553.19,-132.77 542.66,-133.88 545.65,-140.21"/>
</g>
<!-- note1 -->
<g id="node11" class="node">
<title>note1</title>
<text xml:space="preserve" text-anchor="middle" x="209.12" y="-230.5" font-family="Arial" font-size="10.00" fill="red">🔗 Microcontroller Role:</text>
<text xml:space="preserve" text-anchor="middle" x="209.12" y="-218.5" font-family="Arial" font-size="10.00" fill="red">Bridge Physical ↔ Digital</text>
</g>
<!-- note2 -->
<g id="node12" class="node">
<title>note2</title>
<text xml:space="preserve" text-anchor="middle" x="591.75" y="-171.5" font-family="Arial" font-size="10.00" fill="green">🌐 Ultimate Goal:</text>
<text xml:space="preserve" text-anchor="middle" x="591.75" y="-159.5" font-family="Arial" font-size="10.00" fill="green">IoT Connectivity</text>
</g>
</g>
</svg>
