<?xml version="1.0" encoding="UTF-8" standalone="no"?>
<!DOCTYPE svg PUBLIC "-//W3C//DTD SVG 1.1//EN"
 "http://www.w3.org/Graphics/SVG/1.1/DTD/svg11.dtd">
<!-- Generated by graphviz version 13.1.2 (20250808.2320)
 -->
<!-- Title: PWM_Data_Flow Pages: 1 -->
<svg width="1122pt" height="186pt"
 viewBox="0.00 0.00 1122.00 186.00" xmlns="http://www.w3.org/2000/svg" xmlns:xlink="http://www.w3.org/1999/xlink">
<g id="graph0" class="graph" transform="scale(1 1) rotate(0) translate(4 182.38)">
<title>PWM_Data_Flow</title>
<polygon fill="white" stroke="none" points="-4,4 -4,-182.38 1117.52,-182.38 1117.52,4 -4,4"/>
<text xml:space="preserve" text-anchor="middle" x="556.76" y="-161.08" font-family="Arial Bold" font-size="14.00">PWM (LEDC) Data Flow &#45; Timer to Output</text>
<!-- cpu -->
<g id="node1" class="node">
<title>cpu</title>
<polygon fill="#87ceeb" stroke="black" points="84.62,-78.63 1.12,-78.63 1.12,-42.63 84.62,-42.63 84.62,-78.63"/>
<text xml:space="preserve" text-anchor="middle" x="42.88" y="-63.13" font-family="Arial" font-size="10.00">CPU</text>
<text xml:space="preserve" text-anchor="middle" x="42.88" y="-51.13" font-family="Arial" font-size="10.00">Set Duty Cycle</text>
</g>
<!-- timer -->
<g id="node2" class="node">
<title>timer</title>
<polygon fill="#98fb98" stroke="black" points="268.25,-82.63 181,-82.63 181,-38.63 268.25,-38.63 268.25,-82.63"/>
<text xml:space="preserve" text-anchor="middle" x="224.62" y="-69.13" font-family="Arial" font-size="10.00">LEDC Timer</text>
<text xml:space="preserve" text-anchor="middle" x="224.62" y="-57.13" font-family="Arial" font-size="10.00">Clock Generator</text>
<text xml:space="preserve" text-anchor="middle" x="224.62" y="-45.13" font-family="Arial" font-size="10.00">240MHz รท N</text>
</g>
<!-- cpu&#45;&gt;timer -->
<g id="edge1" class="edge">
<title>cpu&#45;&gt;timer</title>
<path fill="none" stroke="blue" stroke-width="2" d="M85.11,-60.63C109.7,-60.63 141.23,-60.63 168,-60.63"/>
<polygon fill="blue" stroke="blue" stroke-width="2" points="167.68,-64.13 177.68,-60.63 167.68,-57.13 167.68,-64.13"/>
<text xml:space="preserve" text-anchor="middle" x="130.38" y="-62.58" font-family="Arial" font-size="9.00">1. Frequency</text>
</g>
<!-- channel -->
<g id="node3" class="node">
<title>channel</title>
<polygon fill="#f0e68c" stroke="black" points="441.75,-82.63 355.25,-82.63 355.25,-38.63 441.75,-38.63 441.75,-82.63"/>
<text xml:space="preserve" text-anchor="middle" x="398.5" y="-69.13" font-family="Arial" font-size="10.00">LEDC Channel</text>
<text xml:space="preserve" text-anchor="middle" x="398.5" y="-57.13" font-family="Arial" font-size="10.00">PWM Generator</text>
<text xml:space="preserve" text-anchor="middle" x="398.5" y="-45.13" font-family="Arial" font-size="10.00">Duty Control</text>
</g>
<!-- timer&#45;&gt;channel -->
<g id="edge2" class="edge">
<title>timer&#45;&gt;channel</title>
<path fill="none" stroke="green" stroke-width="2" d="M268.55,-60.63C290.78,-60.63 318.19,-60.63 342.01,-60.63"/>
<polygon fill="green" stroke="green" stroke-width="2" points="341.79,-64.13 351.79,-60.63 341.79,-57.13 341.79,-64.13"/>
<text xml:space="preserve" text-anchor="middle" x="308.75" y="-62.58" font-family="Arial" font-size="9.00">2. Clock</text>
</g>
<!-- gpio_matrix -->
<g id="node4" class="node">
<title>gpio_matrix</title>
<polygon fill="#dda0dd" stroke="black" points="625,-78.63 549.75,-78.63 549.75,-42.63 625,-42.63 625,-78.63"/>
<text xml:space="preserve" text-anchor="middle" x="587.38" y="-63.13" font-family="Arial" font-size="10.00">GPIO Matrix</text>
<text xml:space="preserve" text-anchor="middle" x="587.38" y="-51.13" font-family="Arial" font-size="10.00">Signal Router</text>
</g>
<!-- channel&#45;&gt;gpio_matrix -->
<g id="edge3" class="edge">
<title>channel&#45;&gt;gpio_matrix</title>
<path fill="none" stroke="orange" stroke-width="2" d="M441.9,-60.63C470.01,-60.63 507.01,-60.63 536.53,-60.63"/>
<polygon fill="orange" stroke="orange" stroke-width="2" points="536.48,-64.13 546.48,-60.63 536.48,-57.13 536.48,-64.13"/>
<text xml:space="preserve" text-anchor="middle" x="501.75" y="-62.58" font-family="Arial" font-size="9.00">3. PWM Signal</text>
</g>
<!-- io_mux -->
<g id="node5" class="node">
<title>io_mux</title>
<polygon fill="#ffb6c1" stroke="black" points="778.25,-82.63 695.5,-82.63 695.5,-38.63 778.25,-38.63 778.25,-82.63"/>
<text xml:space="preserve" text-anchor="middle" x="736.88" y="-69.13" font-family="Arial" font-size="10.00">IO MUX</text>
<text xml:space="preserve" text-anchor="middle" x="736.88" y="-57.13" font-family="Arial" font-size="10.00">Pin Driver</text>
<text xml:space="preserve" text-anchor="middle" x="736.88" y="-45.13" font-family="Arial" font-size="10.00">Current Control</text>
</g>
<!-- gpio_matrix&#45;&gt;io_mux -->
<g id="edge4" class="edge">
<title>gpio_matrix&#45;&gt;io_mux</title>
<path fill="none" stroke="purple" stroke-width="2" d="M625.21,-60.63C642.4,-60.63 663.18,-60.63 682.07,-60.63"/>
<polygon fill="purple" stroke="purple" stroke-width="2" points="682.07,-64.13 692.07,-60.63 682.07,-57.13 682.07,-64.13"/>
<text xml:space="preserve" text-anchor="middle" x="660.25" y="-62.58" font-family="Arial" font-size="9.00">4. Route</text>
</g>
<!-- gpio_pin -->
<g id="node6" class="node">
<title>gpio_pin</title>
<ellipse fill="#ffa07a" stroke="black" cx="906.38" cy="-60.63" rx="60.63" ry="60.63"/>
<text xml:space="preserve" text-anchor="middle" x="906.38" y="-63.13" font-family="Arial" font-size="10.00">GPIO Pin</text>
<text xml:space="preserve" text-anchor="middle" x="906.38" y="-51.13" font-family="Arial" font-size="10.00">Physical Output</text>
</g>
<!-- io_mux&#45;&gt;gpio_pin -->
<g id="edge5" class="edge">
<title>io_mux&#45;&gt;gpio_pin</title>
<path fill="none" stroke="red" stroke-width="2" d="M778.42,-60.63C794.71,-60.63 814,-60.63 832.55,-60.63"/>
<polygon fill="red" stroke="red" stroke-width="2" points="832.53,-64.13 842.53,-60.63 832.53,-57.13 832.53,-64.13"/>
<text xml:space="preserve" text-anchor="middle" x="812" y="-62.58" font-family="Arial" font-size="9.00">5. Drive</text>
</g>
<!-- device -->
<g id="node7" class="node">
<title>device</title>
<polygon fill="#90ee90" stroke="black" points="1113.52,-78.63 1042.77,-78.63 1042.77,-42.63 1113.52,-42.63 1113.52,-78.63"/>
<text xml:space="preserve" text-anchor="middle" x="1078.14" y="-63.13" font-family="Arial" font-size="10.00">LED/Motor</text>
<text xml:space="preserve" text-anchor="middle" x="1078.14" y="-51.13" font-family="Arial" font-size="10.00">Load Device</text>
</g>
<!-- gpio_pin&#45;&gt;device -->
<g id="edge6" class="edge">
<title>gpio_pin&#45;&gt;device</title>
<path fill="none" stroke="brown" stroke-width="2" d="M967.24,-60.63C987.71,-60.63 1010.32,-60.63 1029.68,-60.63"/>
<polygon fill="brown" stroke="brown" stroke-width="2" points="1029.48,-64.13 1039.48,-60.63 1029.48,-57.13 1029.48,-64.13"/>
<text xml:space="preserve" text-anchor="middle" x="1004.89" y="-62.58" font-family="Arial" font-size="9.00">6. Control</text>
</g>
<!-- step1 -->
<g id="node8" class="node">
<title>step1</title>
<polygon fill="#fffacd" stroke="black" points="268.25,-154.63 175,-154.63 175,-118.63 274.25,-118.63 274.25,-148.63 268.25,-154.63"/>
<polyline fill="none" stroke="black" points="268.25,-154.63 268.25,-148.63"/>
<polyline fill="none" stroke="black" points="274.25,-148.63 268.25,-148.63"/>
<text xml:space="preserve" text-anchor="middle" x="224.62" y="-139.13" font-family="Arial" font-size="10.00">[1] Configure Timer</text>
<text xml:space="preserve" text-anchor="middle" x="224.62" y="-127.13" font-family="Arial" font-size="10.00">ledc_timer_config()</text>
</g>
<!-- step1&#45;&gt;timer -->
<g id="edge7" class="edge">
<title>step1&#45;&gt;timer</title>
<path fill="none" stroke="gray" stroke-dasharray="5,2" d="M224.62,-118.16C224.62,-110.17 224.62,-102.18 224.62,-94.2"/>
<polygon fill="gray" stroke="gray" points="228.13,-94.41 224.63,-84.41 221.13,-94.41 228.13,-94.41"/>
</g>
<!-- step2 -->
<g id="node9" class="node">
<title>step2</title>
<polygon fill="#fffacd" stroke="black" points="447.75,-154.63 343.25,-154.63 343.25,-118.63 453.75,-118.63 453.75,-148.63 447.75,-154.63"/>
<polyline fill="none" stroke="black" points="447.75,-154.63 447.75,-148.63"/>
<polyline fill="none" stroke="black" points="453.75,-148.63 447.75,-148.63"/>
<text xml:space="preserve" text-anchor="middle" x="398.5" y="-139.13" font-family="Arial" font-size="10.00">[2] Setup Channel</text>
<text xml:space="preserve" text-anchor="middle" x="398.5" y="-127.13" font-family="Arial" font-size="10.00">ledc_channel_config()</text>
</g>
<!-- step2&#45;&gt;channel -->
<g id="edge8" class="edge">
<title>step2&#45;&gt;channel</title>
<path fill="none" stroke="gray" stroke-dasharray="5,2" d="M398.5,-118.16C398.5,-110.17 398.5,-102.18 398.5,-94.2"/>
<polygon fill="gray" stroke="gray" points="402,-94.41 398.5,-84.41 395,-94.41 402,-94.41"/>
</g>
<!-- step3 -->
<g id="node10" class="node">
<title>step3</title>
<polygon fill="#fffacd" stroke="black" points="79.75,-150.63 0,-150.63 0,-114.63 85.75,-114.63 85.75,-144.63 79.75,-150.63"/>
<polyline fill="none" stroke="black" points="79.75,-150.63 79.75,-144.63"/>
<polyline fill="none" stroke="black" points="85.75,-144.63 79.75,-144.63"/>
<text xml:space="preserve" text-anchor="middle" x="42.88" y="-135.13" font-family="Arial" font-size="10.00">[3] Update Duty</text>
<text xml:space="preserve" text-anchor="middle" x="42.88" y="-123.13" font-family="Arial" font-size="10.00">ledc_set_duty()</text>
</g>
<!-- step3&#45;&gt;cpu -->
<g id="edge9" class="edge">
<title>step3&#45;&gt;cpu</title>
<path fill="none" stroke="gray" stroke-dasharray="5,2" d="M42.88,-114.17C42.88,-106.18 42.88,-98.19 42.88,-90.21"/>
<polygon fill="gray" stroke="gray" points="46.38,-90.43 42.88,-80.43 39.38,-90.43 46.38,-90.43"/>
</g>
</g>
</svg>
