<?xml version="1.0" encoding="UTF-8" standalone="no"?>
<!DOCTYPE svg PUBLIC "-//W3C//DTD SVG 1.1//EN"
 "http://www.w3.org/Graphics/SVG/1.1/DTD/svg11.dtd">
<!-- Generated by graphviz version 13.1.2 (20250808.2320)
 -->
<!-- Title: SPI_Data_Flow Pages: 1 -->
<svg width="1021pt" height="523pt"
 viewBox="0.00 0.00 1021.00 523.00" xmlns="http://www.w3.org/2000/svg" xmlns:xlink="http://www.w3.org/1999/xlink">
<g id="graph0" class="graph" transform="scale(1 1) rotate(0) translate(4 519.31)">
<title>SPI_Data_Flow</title>
<polygon fill="white" stroke="none" points="-4,4 -4,-519.31 1016.97,-519.31 1016.97,4 -4,4"/>
<text xml:space="preserve" text-anchor="middle" x="506.49" y="-498.01" font-family="Arial Bold" font-size="14.00">SPI Master&#45;Slave Communication</text>
<g id="clust1" class="cluster">
<title>cluster_master</title>
<polygon fill="#e6f3ff" stroke="black" points="10.75,-9.56 10.75,-403.56 753.22,-403.56 753.22,-9.56 10.75,-9.56"/>
<text xml:space="preserve" text-anchor="middle" x="381.99" y="-386.26" font-family="Times New Roman,serif" font-size="14.00">ESP32 (SPI Master)</text>
</g>
<!-- app -->
<g id="node1" class="node">
<title>app</title>
<polygon fill="#87ceeb" stroke="black" points="121.75,-209.56 18.75,-209.56 18.75,-173.56 121.75,-173.56 121.75,-209.56"/>
<text xml:space="preserve" text-anchor="middle" x="70.25" y="-194.06" font-family="Arial" font-size="10.00">Application</text>
<text xml:space="preserve" text-anchor="middle" x="70.25" y="-182.06" font-family="Arial" font-size="10.00">spi_device_transmit</text>
</g>
<!-- spi_ctrl -->
<g id="node2" class="node">
<title>spi_ctrl</title>
<polygon fill="#98fb98" stroke="black" points="283.25,-209.56 205.75,-209.56 205.75,-173.56 283.25,-173.56 283.25,-209.56"/>
<text xml:space="preserve" text-anchor="middle" x="244.5" y="-194.06" font-family="Arial" font-size="10.00">SPI Controller</text>
<text xml:space="preserve" text-anchor="middle" x="244.5" y="-182.06" font-family="Arial" font-size="10.00">HSPI/VSPI</text>
</g>
<!-- app&#45;&gt;spi_ctrl -->
<g id="edge1" class="edge">
<title>app&#45;&gt;spi_ctrl</title>
<path fill="none" stroke="blue" stroke-width="2" d="M122,-191.56C144.21,-191.56 170.22,-191.56 192.46,-191.56"/>
<polygon fill="blue" stroke="blue" stroke-width="2" points="192.39,-195.06 202.39,-191.56 192.39,-188.06 192.39,-195.06"/>
<text xml:space="preserve" text-anchor="middle" x="173.12" y="-193.51" font-family="Arial" font-size="9.00">1. Data</text>
</g>
<!-- gpio_matrix -->
<g id="node3" class="node">
<title>gpio_matrix</title>
<polygon fill="#dda0dd" stroke="black" points="451.5,-209.56 376.25,-209.56 376.25,-173.56 451.5,-173.56 451.5,-209.56"/>
<text xml:space="preserve" text-anchor="middle" x="413.88" y="-194.06" font-family="Arial" font-size="10.00">GPIO Matrix</text>
<text xml:space="preserve" text-anchor="middle" x="413.88" y="-182.06" font-family="Arial" font-size="10.00">Signal Router</text>
</g>
<!-- spi_ctrl&#45;&gt;gpio_matrix -->
<g id="edge2" class="edge">
<title>spi_ctrl&#45;&gt;gpio_matrix</title>
<path fill="none" stroke="green" stroke-width="2" d="M283.48,-191.56C307.05,-191.56 337.6,-191.56 363.1,-191.56"/>
<polygon fill="green" stroke="green" stroke-width="2" points="362.88,-195.06 372.88,-191.56 362.88,-188.06 362.88,-195.06"/>
<text xml:space="preserve" text-anchor="middle" x="329.75" y="-193.51" font-family="Arial" font-size="9.00">2. SPI Signals</text>
</g>
<!-- iomux -->
<g id="node4" class="node">
<title>iomux</title>
<polygon fill="#ffb6c1" stroke="black" points="581.5,-209.56 522,-209.56 522,-173.56 581.5,-173.56 581.5,-209.56"/>
<text xml:space="preserve" text-anchor="middle" x="551.75" y="-194.06" font-family="Arial" font-size="10.00">IO MUX</text>
<text xml:space="preserve" text-anchor="middle" x="551.75" y="-182.06" font-family="Arial" font-size="10.00">Pin Driver</text>
</g>
<!-- gpio_matrix&#45;&gt;iomux -->
<g id="edge3" class="edge">
<title>gpio_matrix&#45;&gt;iomux</title>
<path fill="none" stroke="purple" stroke-width="2" d="M451.64,-191.56C469.27,-191.56 490.46,-191.56 508.72,-191.56"/>
<polygon fill="purple" stroke="purple" stroke-width="2" points="508.67,-195.06 518.67,-191.56 508.67,-188.06 508.67,-195.06"/>
<text xml:space="preserve" text-anchor="middle" x="486.75" y="-193.51" font-family="Arial" font-size="9.00">3. Route</text>
</g>
<!-- sclk_pin -->
<g id="node5" class="node">
<title>sclk_pin</title>
<ellipse fill="#ffa07a" stroke="black" cx="706.86" cy="-332.56" rx="38.36" ry="38.36"/>
<text xml:space="preserve" text-anchor="middle" x="706.86" y="-335.06" font-family="Arial" font-size="10.00">GPIO 18</text>
<text xml:space="preserve" text-anchor="middle" x="706.86" y="-323.06" font-family="Arial" font-size="10.00">(SCLK)</text>
</g>
<!-- iomux&#45;&gt;sclk_pin -->
<g id="edge4" class="edge">
<title>iomux&#45;&gt;sclk_pin</title>
<path fill="none" stroke="red" d="M572.77,-209.99C597.37,-232.65 639.56,-271.51 669.85,-299.4"/>
<polygon fill="red" stroke="red" points="667.22,-301.73 676.94,-305.93 671.96,-296.58 667.22,-301.73"/>
<text xml:space="preserve" text-anchor="middle" x="625" y="-280.79" font-family="Arial" font-size="9.00">4a. Clock</text>
</g>
<!-- mosi_pin -->
<g id="node6" class="node">
<title>mosi_pin</title>
<ellipse fill="#ffa07a" stroke="black" cx="706.86" cy="-237.56" rx="38.36" ry="38.36"/>
<text xml:space="preserve" text-anchor="middle" x="706.86" y="-240.06" font-family="Arial" font-size="10.00">GPIO 23</text>
<text xml:space="preserve" text-anchor="middle" x="706.86" y="-228.06" font-family="Arial" font-size="10.00">(MOSI)</text>
</g>
<!-- iomux&#45;&gt;mosi_pin -->
<g id="edge5" class="edge">
<title>iomux&#45;&gt;mosi_pin</title>
<path fill="none" stroke="red" d="M581.91,-200.32C603.68,-206.86 633.87,-215.93 659.01,-223.49"/>
<polygon fill="red" stroke="red" points="657.76,-226.76 668.34,-226.29 659.77,-220.06 657.76,-226.76"/>
<text xml:space="preserve" text-anchor="middle" x="625" y="-221.98" font-family="Arial" font-size="9.00">4b. Data Out</text>
</g>
<!-- miso_pin -->
<g id="node7" class="node">
<title>miso_pin</title>
<ellipse fill="#ffa07a" stroke="black" cx="706.86" cy="-55.56" rx="38.36" ry="38.36"/>
<text xml:space="preserve" text-anchor="middle" x="706.86" y="-58.06" font-family="Arial" font-size="10.00">GPIO 19</text>
<text xml:space="preserve" text-anchor="middle" x="706.86" y="-46.06" font-family="Arial" font-size="10.00">(MISO)</text>
</g>
<!-- iomux&#45;&gt;miso_pin -->
<g id="edge6" class="edge">
<title>iomux&#45;&gt;miso_pin</title>
<path fill="none" stroke="red" d="M572.7,-173.29C580.97,-165.75 590.67,-156.96 599.5,-149.06 622.43,-128.56 648.36,-105.76 668.87,-87.81"/>
<polygon fill="red" stroke="red" points="670.94,-90.65 676.17,-81.43 666.34,-85.38 670.94,-90.65"/>
<text xml:space="preserve" text-anchor="middle" x="625" y="-151.01" font-family="Arial" font-size="9.00">4c. Data In</text>
</g>
<!-- cs_pin -->
<g id="node8" class="node">
<title>cs_pin</title>
<ellipse fill="#ffa07a" stroke="black" cx="706.86" cy="-146.56" rx="34.65" ry="34.65"/>
<text xml:space="preserve" text-anchor="middle" x="706.86" y="-149.06" font-family="Arial" font-size="10.00">GPIO 5</text>
<text xml:space="preserve" text-anchor="middle" x="706.86" y="-137.06" font-family="Arial" font-size="10.00">(CS)</text>
</g>
<!-- iomux&#45;&gt;cs_pin -->
<g id="edge7" class="edge">
<title>iomux&#45;&gt;cs_pin</title>
<path fill="none" stroke="red" d="M581.91,-182.99C604.58,-176.33 636.4,-166.98 662.12,-159.42"/>
<polygon fill="red" stroke="red" points="663.03,-162.8 671.64,-156.62 661.06,-156.08 663.03,-162.8"/>
<text xml:space="preserve" text-anchor="middle" x="625" y="-178.96" font-family="Arial" font-size="9.00">4d. Select</text>
</g>
<!-- sclk_line -->
<g id="node9" class="node">
<title>sclk_line</title>
<text xml:space="preserve" text-anchor="middle" x="818.72" y="-346.06" font-family="Arial" font-size="10.00">SCLK</text>
<text xml:space="preserve" text-anchor="middle" x="818.72" y="-334.06" font-family="Arial" font-size="10.00">(Clock)</text>
</g>
<!-- sclk_pin&#45;&gt;sclk_line -->
<g id="edge8" class="edge">
<title>sclk_pin&#45;&gt;sclk_line</title>
<path fill="none" stroke="orange" stroke-width="2" d="M745.36,-336.32C756.71,-337.45 769.17,-338.7 780.5,-339.83"/>
<polygon fill="orange" stroke="orange" stroke-width="2" points="778.49,-343.15 788.79,-340.66 779.19,-336.19 778.49,-343.15"/>
</g>
<!-- mosi_line -->
<g id="node10" class="node">
<title>mosi_line</title>
<text xml:space="preserve" text-anchor="middle" x="818.72" y="-218.06" font-family="Arial" font-size="10.00">MOSI</text>
<text xml:space="preserve" text-anchor="middle" x="818.72" y="-206.06" font-family="Arial" font-size="10.00">(Master Out)</text>
</g>
<!-- mosi_pin&#45;&gt;mosi_line -->
<g id="edge9" class="edge">
<title>mosi_pin&#45;&gt;mosi_line</title>
<path fill="none" stroke="orange" stroke-width="2" d="M744.75,-230.17C753.7,-228.38 763.37,-226.44 772.65,-224.59"/>
<polygon fill="orange" stroke="orange" stroke-width="2" points="771.62,-228.36 780.74,-222.97 770.25,-221.5 771.62,-228.36"/>
</g>
<!-- miso_line -->
<g id="node11" class="node">
<title>miso_line</title>
<text xml:space="preserve" text-anchor="middle" x="818.72" y="-85.06" font-family="Arial" font-size="10.00">MISO</text>
<text xml:space="preserve" text-anchor="middle" x="818.72" y="-73.06" font-family="Arial" font-size="10.00">(Master In)</text>
</g>
<!-- miso_pin&#45;&gt;miso_line -->
<g id="edge10" class="edge">
<title>miso_pin&#45;&gt;miso_line</title>
<path fill="none" stroke="orange" stroke-width="2" d="M744.44,-64.55C754.62,-67.05 765.74,-69.79 776.18,-72.35"/>
<polygon fill="orange" stroke="orange" stroke-width="2" points="773.68,-75.34 784.22,-74.33 775.35,-68.54 773.68,-75.34"/>
</g>
<!-- cs_line -->
<g id="node12" class="node">
<title>cs_line</title>
<text xml:space="preserve" text-anchor="middle" x="818.72" y="-144.06" font-family="Arial" font-size="10.00">CS</text>
<text xml:space="preserve" text-anchor="middle" x="818.72" y="-132.06" font-family="Arial" font-size="10.00">(Chip Select)</text>
</g>
<!-- cs_pin&#45;&gt;cs_line -->
<g id="edge11" class="edge">
<title>cs_pin&#45;&gt;cs_line</title>
<path fill="none" stroke="orange" stroke-width="2" d="M741.72,-145.02C750.96,-144.6 761.15,-144.14 770.97,-143.69"/>
<polygon fill="orange" stroke="orange" stroke-width="2" points="769.41,-147.26 779.24,-143.31 769.09,-140.27 769.41,-147.26"/>
</g>
<!-- device1 -->
<g id="node13" class="node">
<title>device1</title>
<polygon fill="#90ee90" stroke="black" points="1000.6,-175.56 946.35,-175.56 946.35,-139.56 1000.6,-139.56 1000.6,-175.56"/>
<text xml:space="preserve" text-anchor="middle" x="973.47" y="-160.06" font-family="Arial" font-size="10.00">SD Card</text>
<text xml:space="preserve" text-anchor="middle" x="973.47" y="-148.06" font-family="Arial" font-size="10.00">Storage</text>
</g>
<!-- sclk_line&#45;&gt;device1 -->
<g id="edge12" class="edge">
<title>sclk_line&#45;&gt;device1</title>
<path fill="none" stroke="gray" d="M845.37,-341.78C866.81,-338.98 896.86,-331.82 915.97,-313.56 918.37,-311.27 946.64,-231.3 962.26,-186.77"/>
<polygon fill="gray" stroke="gray" points="965.52,-188.05 965.52,-177.46 958.91,-185.74 965.52,-188.05"/>
<text xml:space="preserve" text-anchor="middle" x="894.6" y="-337.31" font-family="Arial" font-size="9.00">CLK</text>
</g>
<!-- device2 -->
<g id="node14" class="node">
<title>device2</title>
<polygon fill="#90ee90" stroke="black" points="1005.47,-73.56 941.47,-73.56 941.47,-37.56 1005.47,-37.56 1005.47,-73.56"/>
<text xml:space="preserve" text-anchor="middle" x="973.47" y="-58.06" font-family="Arial" font-size="10.00">Display</text>
<text xml:space="preserve" text-anchor="middle" x="973.47" y="-46.06" font-family="Arial" font-size="10.00">TFT/OLED</text>
</g>
<!-- sclk_line&#45;&gt;device2 -->
<g id="edge13" class="edge">
<title>sclk_line&#45;&gt;device2</title>
<path fill="none" stroke="gray" d="M825.97,-325.7C838.22,-291.02 864.9,-217.16 873.22,-208.06 887.57,-192.36 902.14,-202.72 915.97,-186.56 932.97,-166.7 923.97,-154.71 933.97,-130.56 940.53,-114.72 949.15,-97.67 956.57,-83.84"/>
<polygon fill="gray" stroke="gray" points="959.51,-85.75 961.23,-75.29 953.37,-82.4 959.51,-85.75"/>
<text xml:space="preserve" text-anchor="middle" x="894.6" y="-210.01" font-family="Arial" font-size="9.00">CLK</text>
</g>
<!-- device3 -->
<g id="node15" class="node">
<title>device3</title>
<polygon fill="#90ee90" stroke="black" points="1012.97,-311.56 933.97,-311.56 933.97,-275.56 1012.97,-275.56 1012.97,-311.56"/>
<text xml:space="preserve" text-anchor="middle" x="973.47" y="-296.06" font-family="Arial" font-size="10.00">Sensor</text>
<text xml:space="preserve" text-anchor="middle" x="973.47" y="-284.06" font-family="Arial" font-size="10.00">Accelerometer</text>
</g>
<!-- sclk_line&#45;&gt;device3 -->
<g id="edge14" class="edge">
<title>sclk_line&#45;&gt;device3</title>
<path fill="none" stroke="gray" d="M845.31,-354.26C865.35,-360.96 893.49,-366.6 915.97,-356.56 932.38,-349.24 946.01,-334.53 955.76,-321.17"/>
<polygon fill="gray" stroke="gray" points="958.56,-323.28 961.32,-313.05 952.78,-319.33 958.56,-323.28"/>
<text xml:space="preserve" text-anchor="middle" x="894.6" y="-363.97" font-family="Arial" font-size="9.00">CLK</text>
</g>
<!-- mosi_line&#45;&gt;device1 -->
<g id="edge15" class="edge">
<title>mosi_line&#45;&gt;device1</title>
<path fill="none" stroke="blue" d="M839.2,-197.83C848.8,-190.01 860.94,-181.4 873.22,-176.06 892.66,-167.61 915.87,-163.02 934.96,-160.52"/>
<polygon fill="blue" stroke="blue" points="935.21,-164.01 944.74,-159.39 934.41,-157.06 935.21,-164.01"/>
<text xml:space="preserve" text-anchor="middle" x="894.6" y="-178.01" font-family="Arial" font-size="9.00">DATA OUT</text>
</g>
<!-- mosi_line&#45;&gt;device2 -->
<g id="edge16" class="edge">
<title>mosi_line&#45;&gt;device2</title>
<path fill="none" stroke="blue" d="M835.81,-197.97C842.7,-189.6 850.28,-179.12 855.22,-168.56 870.2,-136.53 849.7,-117.46 873.22,-91.06 887.74,-74.77 910.27,-65.95 930.2,-61.18"/>
<polygon fill="blue" stroke="blue" points="930.69,-64.65 939.76,-59.18 929.25,-57.8 930.69,-64.65"/>
<text xml:space="preserve" text-anchor="middle" x="894.6" y="-93.01" font-family="Arial" font-size="9.00">DATA OUT</text>
</g>
<!-- mosi_line&#45;&gt;device3 -->
<g id="edge17" class="edge">
<title>mosi_line&#45;&gt;device3</title>
<path fill="none" stroke="blue" d="M827.16,-233.3C835.53,-250.78 850.95,-276.56 873.22,-288.56 888.03,-296.54 905.95,-299.17 922.47,-299.36"/>
<polygon fill="blue" stroke="blue" points="922.19,-302.87 932.12,-299.17 922.05,-295.87 922.19,-302.87"/>
<text xml:space="preserve" text-anchor="middle" x="894.6" y="-301.02" font-family="Arial" font-size="9.00">DATA OUT</text>
</g>
<!-- cs_line&#45;&gt;device1 -->
<g id="edge21" class="edge">
<title>cs_line&#45;&gt;device1</title>
<path fill="none" stroke="red" stroke-dasharray="5,2" d="M855.08,-139.54C873.34,-139.05 895.94,-139.31 915.97,-142.06 922.21,-142.92 928.73,-144.27 935.03,-145.82"/>
<polygon fill="red" stroke="red" points="934.01,-149.17 944.58,-148.38 935.83,-142.41 934.01,-149.17"/>
<text xml:space="preserve" text-anchor="middle" x="894.6" y="-144.01" font-family="Arial" font-size="9.00">CS1</text>
</g>
<!-- cs_line&#45;&gt;device2 -->
<g id="edge22" class="edge">
<title>cs_line&#45;&gt;device2</title>
<path fill="none" stroke="red" stroke-dasharray="5,2" d="M843.57,-123.65C847.96,-119.43 852.12,-114.67 855.22,-109.56 871.77,-82.28 847.99,-59.59 873.22,-40.06 889.32,-27.6 911.38,-29.73 930.61,-35.73"/>
<polygon fill="red" stroke="red" points="929.22,-38.95 939.81,-39 931.56,-32.35 929.22,-38.95"/>
<text xml:space="preserve" text-anchor="middle" x="894.6" y="-42.01" font-family="Arial" font-size="9.00">CS2</text>
</g>
<!-- cs_line&#45;&gt;device3 -->
<g id="edge23" class="edge">
<title>cs_line&#45;&gt;device3</title>
<path fill="none" stroke="red" stroke-dasharray="5,2" d="M835.63,-159.24C842.48,-167.63 850.08,-178.1 855.22,-188.56 868.63,-215.85 852.92,-231.93 873.22,-254.56 877.01,-258.78 899.93,-267.91 922.79,-276.27"/>
<polygon fill="red" stroke="red" points="921.55,-279.54 932.14,-279.64 923.93,-272.96 921.55,-279.54"/>
<text xml:space="preserve" text-anchor="middle" x="894.6" y="-275.11" font-family="Arial" font-size="9.00">CS3</text>
</g>
<!-- device1&#45;&gt;miso_line -->
<g id="edge18" class="edge">
<title>device1&#45;&gt;miso_line</title>
<path fill="none" stroke="green" d="M946.06,-141.6C936.68,-136.13 925.96,-130.12 915.97,-125.06 898.02,-115.97 877.7,-106.83 860.37,-99.38"/>
<polygon fill="green" stroke="green" points="861.98,-96.26 851.41,-95.56 859.24,-102.7 861.98,-96.26"/>
<text xml:space="preserve" text-anchor="middle" x="894.6" y="-127.01" font-family="Arial" font-size="9.00">DATA IN</text>
</g>
<!-- device2&#45;&gt;miso_line -->
<g id="edge19" class="edge">
<title>device2&#45;&gt;miso_line</title>
<path fill="none" stroke="green" d="M957.81,-37.24C947.48,-25.88 932.57,-12.3 915.97,-6.06 898.19,0.63 890.07,2.72 873.22,-6.06 853.7,-16.23 839.83,-37.14 831.12,-54.53"/>
<polygon fill="green" stroke="green" points="828.03,-52.86 826.99,-63.41 834.38,-55.82 828.03,-52.86"/>
<text xml:space="preserve" text-anchor="middle" x="894.6" y="-8.01" font-family="Arial" font-size="9.00">DATA IN</text>
</g>
<!-- device3&#45;&gt;miso_line -->
<g id="edge20" class="edge">
<title>device3&#45;&gt;miso_line</title>
<path fill="none" stroke="green" d="M955.21,-275.52C944.53,-264.97 930.19,-251.84 915.97,-242.06 898.45,-230.01 885.86,-237.66 873.22,-220.56 844.82,-182.13 878.24,-156.43 855.22,-114.56 854.14,-112.6 852.9,-110.69 851.53,-108.86"/>
<polygon fill="green" stroke="green" points="854.18,-106.57 844.92,-101.41 848.94,-111.21 854.18,-106.57"/>
<text xml:space="preserve" text-anchor="middle" x="894.6" y="-244.01" font-family="Arial" font-size="9.00">DATA IN</text>
</g>
<!-- characteristics -->
<g id="node16" class="node">
<title>characteristics</title>
<polygon fill="#fffacd" stroke="black" points="134.5,-491.56 0,-491.56 0,-411.56 140.5,-411.56 140.5,-485.56 134.5,-491.56"/>
<polyline fill="none" stroke="black" points="134.5,-491.56 134.5,-485.56"/>
<polyline fill="none" stroke="black" points="140.5,-485.56 134.5,-485.56"/>
<text xml:space="preserve" text-anchor="middle" x="70.25" y="-478.06" font-family="Arial" font-size="10.00">SPI Characteristics:</text>
<text xml:space="preserve" text-anchor="middle" x="70.25" y="-466.06" font-family="Arial" font-size="10.00">• Full&#45;duplex communication</text>
<text xml:space="preserve" text-anchor="middle" x="70.25" y="-454.06" font-family="Arial" font-size="10.00">• Master controls clock</text>
<text xml:space="preserve" text-anchor="middle" x="70.25" y="-442.06" font-family="Arial" font-size="10.00">• Up to 80MHz speed</text>
<text xml:space="preserve" text-anchor="middle" x="70.25" y="-430.06" font-family="Arial" font-size="10.00">• Multiple slaves (CS select)</text>
<text xml:space="preserve" text-anchor="middle" x="70.25" y="-418.06" font-family="Arial" font-size="10.00">• 4&#45;wire interface</text>
</g>
</g>
</svg>
