<?xml version="1.0" encoding="UTF-8" standalone="no"?>
<!DOCTYPE svg PUBLIC "-//W3C//DTD SVG 1.1//EN"
 "http://www.w3.org/Graphics/SVG/1.1/DTD/svg11.dtd">
<!-- Generated by graphviz version 13.1.2 (20250808.2320)
 -->
<!-- Title: UART_Data_Flow Pages: 1 -->
<svg width="284pt" height="991pt"
 viewBox="0.00 0.00 284.00 991.00" xmlns="http://www.w3.org/2000/svg" xmlns:xlink="http://www.w3.org/1999/xlink">
<g id="graph0" class="graph" transform="scale(1 1) rotate(0) translate(4 986.8)">
<title>UART_Data_Flow</title>
<polygon fill="white" stroke="none" points="-4,4 -4,-986.8 280,-986.8 280,4 -4,4"/>
<text xml:space="preserve" text-anchor="middle" x="138" y="-965.5" font-family="Arial Bold" font-size="14.00">UART Bidirectional Data Flow</text>
<g id="clust1" class="cluster">
<title>cluster_tx</title>
<polygon fill="#e6f3ff" stroke="black" points="8,-523.54 8,-951.05 132,-951.05 132,-523.54 8,-523.54"/>
<text xml:space="preserve" text-anchor="middle" x="70" y="-933.75" font-family="Times New Roman,serif" font-size="14.00">TX Path (Transmit)</text>
</g>
<g id="clust2" class="cluster">
<title>cluster_rx</title>
<polygon fill="#f0fff0" stroke="black" points="150,-8 150,-419.51 268,-419.51 268,-8 150,-8"/>
<text xml:space="preserve" text-anchor="middle" x="209" y="-402.21" font-family="Times New Roman,serif" font-size="14.00">RX Path (Receive)</text>
</g>
<!-- app_tx -->
<g id="node1" class="node">
<title>app_tx</title>
<polygon fill="#87ceeb" stroke="black" points="106.88,-918.55 33.12,-918.55 33.12,-882.55 106.88,-882.55 106.88,-918.55"/>
<text xml:space="preserve" text-anchor="middle" x="70" y="-903.05" font-family="Arial" font-size="10.00">Application</text>
<text xml:space="preserve" text-anchor="middle" x="70" y="-891.05" font-family="Arial" font-size="10.00">printf()/write()</text>
</g>
<!-- uart_tx -->
<g id="node2" class="node">
<title>uart_tx</title>
<polygon fill="#98fb98" stroke="black" points="114,-820.05 26,-820.05 26,-776.05 114,-776.05 114,-820.05"/>
<text xml:space="preserve" text-anchor="middle" x="70" y="-806.55" font-family="Arial" font-size="10.00">UART Controller</text>
<text xml:space="preserve" text-anchor="middle" x="70" y="-794.55" font-family="Arial" font-size="10.00">TX FIFO</text>
<text xml:space="preserve" text-anchor="middle" x="70" y="-782.55" font-family="Arial" font-size="10.00">(128 bytes)</text>
</g>
<!-- app_tx&#45;&gt;uart_tx -->
<g id="edge1" class="edge">
<title>app_tx&#45;&gt;uart_tx</title>
<path fill="none" stroke="blue" stroke-width="2" d="M70,-882.5C70,-868.98 70,-849.65 70,-833"/>
<polygon fill="blue" stroke="blue" stroke-width="2" points="73.5,-833.41 70,-823.41 66.5,-833.41 73.5,-833.41"/>
<text xml:space="preserve" text-anchor="middle" x="84.62" y="-840" font-family="Arial" font-size="9.00">1. Data</text>
</g>
<!-- gpio_tx -->
<g id="node3" class="node">
<title>gpio_tx</title>
<polygon fill="#dda0dd" stroke="black" points="105.38,-729.55 34.62,-729.55 34.62,-693.55 105.38,-693.55 105.38,-729.55"/>
<text xml:space="preserve" text-anchor="middle" x="70" y="-714.05" font-family="Arial" font-size="10.00">GPIO Matrix</text>
<text xml:space="preserve" text-anchor="middle" x="70" y="-702.05" font-family="Arial" font-size="10.00">(TX Signal)</text>
</g>
<!-- uart_tx&#45;&gt;gpio_tx -->
<g id="edge2" class="edge">
<title>uart_tx&#45;&gt;gpio_tx</title>
<path fill="none" stroke="green" stroke-width="2" d="M70,-775.73C70,-765.76 70,-753.71 70,-742.82"/>
<polygon fill="green" stroke="green" stroke-width="2" points="73.5,-742.91 70,-732.91 66.5,-742.91 73.5,-742.91"/>
<text xml:space="preserve" text-anchor="middle" x="86.88" y="-749.5" font-family="Arial" font-size="9.00">2. Serial</text>
</g>
<!-- iomux_tx -->
<g id="node4" class="node">
<title>iomux_tx</title>
<polygon fill="#ffb6c1" stroke="black" points="97,-647.05 43,-647.05 43,-611.05 97,-611.05 97,-647.05"/>
<text xml:space="preserve" text-anchor="middle" x="70" y="-631.55" font-family="Arial" font-size="10.00">IO MUX</text>
<text xml:space="preserve" text-anchor="middle" x="70" y="-619.55" font-family="Arial" font-size="10.00">TX Pin</text>
</g>
<!-- gpio_tx&#45;&gt;iomux_tx -->
<g id="edge3" class="edge">
<title>gpio_tx&#45;&gt;iomux_tx</title>
<path fill="none" stroke="purple" stroke-width="2" d="M70,-693.08C70,-683.48 70,-671.3 70,-660.22"/>
<polygon fill="purple" stroke="purple" stroke-width="2" points="73.5,-660.51 70,-650.51 66.5,-660.51 73.5,-660.51"/>
<text xml:space="preserve" text-anchor="middle" x="87.25" y="-667" font-family="Arial" font-size="9.00">3. Route</text>
</g>
<!-- pin_tx -->
<g id="node5" class="node">
<title>pin_tx</title>
<ellipse fill="#ffa07a" stroke="black" cx="70" cy="-523.54" rx="41.01" ry="41.01"/>
<text xml:space="preserve" text-anchor="middle" x="70" y="-526.04" font-family="Arial" font-size="10.00">GPIO Pin</text>
<text xml:space="preserve" text-anchor="middle" x="70" y="-514.04" font-family="Arial" font-size="10.00">(TX)</text>
</g>
<!-- iomux_tx&#45;&gt;pin_tx -->
<g id="edge4" class="edge">
<title>iomux_tx&#45;&gt;pin_tx</title>
<path fill="none" stroke="red" stroke-width="2" d="M70,-610.96C70,-601.76 70,-589.87 70,-577.86"/>
<polygon fill="red" stroke="red" stroke-width="2" points="73.5,-577.94 70,-567.94 66.5,-577.94 73.5,-577.94"/>
<text xml:space="preserve" text-anchor="middle" x="85.75" y="-584.5" font-family="Arial" font-size="9.00">4. Drive</text>
</g>
<!-- external -->
<g id="node11" class="node">
<title>external</title>
<polygon fill="#f0e68c" stroke="black" points="245.88,-541.54 160.12,-541.54 160.12,-505.54 245.88,-505.54 245.88,-541.54"/>
<text xml:space="preserve" text-anchor="middle" x="203" y="-526.04" font-family="Arial" font-size="10.00">External Device</text>
<text xml:space="preserve" text-anchor="middle" x="203" y="-514.04" font-family="Arial" font-size="10.00">Sensor/Module</text>
</g>
<!-- pin_tx&#45;&gt;external -->
<g id="edge5" class="edge">
<title>pin_tx&#45;&gt;external</title>
<path fill="none" stroke="orange" stroke-width="2" d="M111.35,-523.54C122.66,-523.54 135.12,-523.54 147.09,-523.54"/>
<polygon fill="orange" stroke="orange" stroke-width="2" points="146.81,-527.04 156.81,-523.54 146.81,-520.04 146.81,-527.04"/>
<text xml:space="preserve" text-anchor="middle" x="135.57" y="-528.49" font-family="Arial" font-size="9.00">TX Line</text>
</g>
<!-- pin_rx -->
<g id="node6" class="node">
<title>pin_rx</title>
<ellipse fill="#90ee90" stroke="black" cx="203" cy="-395.01" rx="41.01" ry="41.01"/>
<text xml:space="preserve" text-anchor="middle" x="203" y="-397.51" font-family="Arial" font-size="10.00">GPIO Pin</text>
<text xml:space="preserve" text-anchor="middle" x="203" y="-385.51" font-family="Arial" font-size="10.00">(RX)</text>
</g>
<!-- iomux_rx -->
<g id="node7" class="node">
<title>iomux_rx</title>
<polygon fill="#ffb6c1" stroke="black" points="230,-307.5 176,-307.5 176,-271.5 230,-271.5 230,-307.5"/>
<text xml:space="preserve" text-anchor="middle" x="203" y="-292" font-family="Arial" font-size="10.00">IO MUX</text>
<text xml:space="preserve" text-anchor="middle" x="203" y="-280" font-family="Arial" font-size="10.00">RX Pin</text>
</g>
<!-- pin_rx&#45;&gt;iomux_rx -->
<g id="edge7" class="edge">
<title>pin_rx&#45;&gt;iomux_rx</title>
<path fill="none" stroke="red" stroke-width="2" d="M203,-353.7C203,-342.77 203,-331.12 203,-320.85"/>
<polygon fill="red" stroke="red" stroke-width="2" points="206.5,-320.9 203,-310.9 199.5,-320.9 206.5,-320.9"/>
<text xml:space="preserve" text-anchor="middle" x="224.75" y="-327.45" font-family="Arial" font-size="9.00">5. Receive</text>
</g>
<!-- gpio_rx -->
<g id="node8" class="node">
<title>gpio_rx</title>
<polygon fill="#dda0dd" stroke="black" points="238.38,-225 167.62,-225 167.62,-189 238.38,-189 238.38,-225"/>
<text xml:space="preserve" text-anchor="middle" x="203" y="-209.5" font-family="Arial" font-size="10.00">GPIO Matrix</text>
<text xml:space="preserve" text-anchor="middle" x="203" y="-197.5" font-family="Arial" font-size="10.00">(RX Signal)</text>
</g>
<!-- iomux_rx&#45;&gt;gpio_rx -->
<g id="edge8" class="edge">
<title>iomux_rx&#45;&gt;gpio_rx</title>
<path fill="none" stroke="purple" stroke-width="2" d="M203,-271.03C203,-261.43 203,-249.26 203,-238.17"/>
<polygon fill="purple" stroke="purple" stroke-width="2" points="206.5,-238.46 203,-228.46 199.5,-238.46 206.5,-238.46"/>
<text xml:space="preserve" text-anchor="middle" x="220.25" y="-244.95" font-family="Arial" font-size="9.00">6. Route</text>
</g>
<!-- uart_rx -->
<g id="node9" class="node">
<title>uart_rx</title>
<polygon fill="#98fb98" stroke="black" points="247,-142.5 159,-142.5 159,-98.5 247,-98.5 247,-142.5"/>
<text xml:space="preserve" text-anchor="middle" x="203" y="-129" font-family="Arial" font-size="10.00">UART Controller</text>
<text xml:space="preserve" text-anchor="middle" x="203" y="-117" font-family="Arial" font-size="10.00">RX FIFO</text>
<text xml:space="preserve" text-anchor="middle" x="203" y="-105" font-family="Arial" font-size="10.00">(128 bytes)</text>
</g>
<!-- gpio_rx&#45;&gt;uart_rx -->
<g id="edge9" class="edge">
<title>gpio_rx&#45;&gt;uart_rx</title>
<path fill="none" stroke="green" stroke-width="2" d="M203,-188.9C203,-179.33 203,-167.06 203,-155.62"/>
<polygon fill="green" stroke="green" stroke-width="2" points="206.5,-155.8 203,-145.8 199.5,-155.8 206.5,-155.8"/>
<text xml:space="preserve" text-anchor="middle" x="231.12" y="-162.45" font-family="Arial" font-size="9.00">7. Deserialize</text>
</g>
<!-- app_rx -->
<g id="node10" class="node">
<title>app_rx</title>
<polygon fill="#87ceeb" stroke="black" points="239.88,-52 166.12,-52 166.12,-16 239.88,-16 239.88,-52"/>
<text xml:space="preserve" text-anchor="middle" x="203" y="-36.5" font-family="Arial" font-size="10.00">Application</text>
<text xml:space="preserve" text-anchor="middle" x="203" y="-24.5" font-family="Arial" font-size="10.00">read()/scanf()</text>
</g>
<!-- uart_rx&#45;&gt;app_rx -->
<g id="edge10" class="edge">
<title>uart_rx&#45;&gt;app_rx</title>
<path fill="none" stroke="blue" stroke-width="2" d="M203,-98.18C203,-88.21 203,-76.16 203,-65.27"/>
<polygon fill="blue" stroke="blue" stroke-width="2" points="206.5,-65.36 203,-55.36 199.5,-65.36 206.5,-65.36"/>
<text xml:space="preserve" text-anchor="middle" x="217.62" y="-71.95" font-family="Arial" font-size="9.00">8. Data</text>
</g>
<!-- external&#45;&gt;pin_rx -->
<g id="edge6" class="edge">
<title>external&#45;&gt;pin_rx</title>
<path fill="none" stroke="orange" stroke-width="2" d="M203,-505.21C203,-490.72 203,-469.25 203,-449.18"/>
<polygon fill="orange" stroke="orange" stroke-width="2" points="206.5,-449.3 203,-439.3 199.5,-449.3 206.5,-449.3"/>
<text xml:space="preserve" text-anchor="middle" x="219.5" y="-455.97" font-family="Arial" font-size="9.00">RX Line</text>
</g>
<!-- config -->
<g id="node12" class="node">
<title>config</title>
<polygon fill="#fffacd" stroke="black" points="261.5,-934.55 140.5,-934.55 140.5,-866.55 267.5,-866.55 267.5,-928.55 261.5,-934.55"/>
<polyline fill="none" stroke="black" points="261.5,-934.55 261.5,-928.55"/>
<polyline fill="none" stroke="black" points="267.5,-928.55 261.5,-928.55"/>
<text xml:space="preserve" text-anchor="middle" x="204" y="-921.05" font-family="Arial" font-size="10.00">UART Configuration</text>
<text xml:space="preserve" text-anchor="middle" x="204" y="-909.05" font-family="Arial" font-size="10.00">• Baud Rate (9600&#45;3M)</text>
<text xml:space="preserve" text-anchor="middle" x="204" y="-897.05" font-family="Arial" font-size="10.00">• Data Bits (5&#45;8)</text>
<text xml:space="preserve" text-anchor="middle" x="204" y="-885.05" font-family="Arial" font-size="10.00">• Stop Bits (1&#45;2)</text>
<text xml:space="preserve" text-anchor="middle" x="204" y="-873.05" font-family="Arial" font-size="10.00">• Parity (None/Even/Odd)</text>
</g>
</g>
</svg>
